/* XPM */
static char * Android_xpm[] = {
"13 16 3 1",
" 	c None",
".	c #A5CA39",
"+	c #DDEBB5",
"             ",
"    .....    ",
"   .......   ",
"   .......   ",
"  .........  ",
".............",
".............",
".............",
".............",
".............",
".............",
"  .........  ",
"   .......+  ",
"    .. ..    ",
"    .. ..    ",
"    .. ..    "};
