/* XPM */
static char * Anonymous_xpm[] = {
"16 16 106 2",
"  	c None",
". 	c #E5E5E5",
"+ 	c #DBDBDB",
"@ 	c #D4D4D4",
"# 	c #E2E2E2",
"$ 	c #C7C7C7",
"% 	c #D3D3D3",
"& 	c #DDDDDD",
"* 	c #F9F9F9",
"= 	c #FFFFFF",
"- 	c #F7F7F7",
"; 	c #DFDFDF",
"> 	c #D5D5D5",
", 	c #BFBFBF",
"' 	c #B9B9B9",
") 	c #D6D6D6",
"! 	c #F2F2F2",
"~ 	c #F3F3F3",
"{ 	c #DEDEDE",
"] 	c #ACACAC",
"^ 	c #C1C1C1",
"/ 	c #E9E9E9",
"( 	c #F0F0F0",
"_ 	c #F8F8F8",
": 	c #F1F1F1",
"< 	c #B0B0B0",
"[ 	c #CACACA",
"} 	c #ABABAB",
"| 	c #9C9C9C",
"1 	c #EAEAEA",
"2 	c #F5F5F5",
"3 	c #BABABA",
"4 	c #F4F4F4",
"5 	c #FAFAFA",
"6 	c #8E8E8E",
"7 	c #A0A0A0",
"8 	c #B2B2B2",
"9 	c #969696",
"0 	c #848484",
"a 	c #BDBDBD",
"b 	c #EDEDED",
"c 	c #E8E8E8",
"d 	c #EEEEEE",
"e 	c #888888",
"f 	c #8D8D8D",
"g 	c #959595",
"h 	c #838383",
"i 	c #FDFDFD",
"j 	c #F6F6F6",
"k 	c #7D7D7D",
"l 	c #8B8B8B",
"m 	c #8C8C8C",
"n 	c #D9D9D9",
"o 	c #FCFCFC",
"p 	c #C6C6C6",
"q 	c #999999",
"r 	c #A4A4A4",
"s 	c #9E9E9E",
"t 	c #E6E6E6",
"u 	c #808080",
"v 	c #828282",
"w 	c #777777",
"x 	c #6E6E6E",
"y 	c #313131",
"z 	c #9A9A9A",
"A 	c #727272",
"B 	c #E3E3E3",
"C 	c #797979",
"D 	c #646464",
"E 	c #757575",
"F 	c #9F9F9F",
"G 	c #FEFEFE",
"H 	c #3B3B3B",
"I 	c #272727",
"J 	c #383838",
"K 	c #373737",
"L 	c #232323",
"M 	c #505050",
"N 	c #606060",
"O 	c #747474",
"P 	c #6A6A6A",
"Q 	c #CECECE",
"R 	c #1F1F1F",
"S 	c #1C1C1C",
"T 	c #1E1E1E",
"U 	c #1A1A1A",
"V 	c #2E2E2E",
"W 	c #6D6D6D",
"X 	c #767676",
"Y 	c #7A7A7A",
"Z 	c #787878",
"` 	c #707070",
" .	c #121212",
"..	c #141414",
"+.	c #131313",
"@.	c #737373",
"#.	c #717171",
"$.	c #050505",
"%.	c #0B0B0B",
"&.	c #090909",
"*.	c #8A8A8A",
"=.	c #5A5A5A",
"-.	c #020202",
";.	c #030303",
">.	c #1B1B1B",
",.	c #666666",
"                                ",
"          . + @ @ + #           ",
"      $ % & * = = - ; > ,       ",
"    ' ) * = * ! ~ * = ! { ]     ",
"    ^ ' / ( ( - _ ( : . < [     ",
"  < } | 1 2 - [ 3 4 5 ~ 6 7 8   ",
"  9 0 a - b 5 ( c 5 d ! [ e f   ",
"  g h % i j j { % - j i . k l   ",
"  m 0 n o p q 3 r s p * t u v   ",
"  v w @ = x y z u y A j B w C   ",
"  D E F G H I J K L M ~ z N 6   ",
"    O P Q R S T T U V ' W X     ",
"    Y Z ` R  ...+.+.R @.W 7     ",
"      #.A X $.%.&.S C D *.      ",
"          =.-.$.;.>.,.          ",
"                                "};
