/* XPM */
static char * iOS_xpm[] = {
"16 16 53 1",
" 	c None",
".	c #E2E0E0",
"+	c #F2F0F0",
"@	c #DEDBDB",
"#	c #ECE9E9",
"$	c #E7E4E4",
"%	c #C8C6C6",
"&	c #C9C7C7",
"*	c #E0DFDF",
"=	c #E0DEDE",
"-	c #E1DEDE",
";	c #DAD8D8",
">	c #DEDCDC",
",	c #E2DFDF",
"'	c #D9D7D7",
")	c #D9D6D6",
"!	c #D8D6D6",
"~	c #C1BFBF",
"{	c #CFCDCD",
"]	c #D0CECE",
"^	c #C2C0C0",
"/	c #C3C1C1",
"(	c #B9B8B8",
"_	c #BFBDBD",
":	c #BEBDBD",
"<	c #AEACAC",
"[	c #B6B4B4",
"}	c #B5B3B3",
"|	c #B7B6B6",
"1	c #A09F9F",
"2	c #ABA9A9",
"3	c #AAA9A9",
"4	c #ACABAB",
"5	c #909090",
"6	c #9F9F9F",
"7	c #9F9E9E",
"8	c #9E9E9E",
"9	c #A0A0A0",
"0	c #8F8E8E",
"a	c #959494",
"b	c #8E8D8D",
"c	c #807F7F",
"d	c #8B8A8A",
"e	c #8C8B8B",
"f	c #8C8C8C",
"g	c #898888",
"h	c #797979",
"i	c #848484",
"j	c #828282",
"k	c #7B7B7B",
"l	c #7D7D7D",
"m	c #808080",
"n	c #747474",
"          .     ",
"         +@     ",
"        #$      ",
"        %&      ",
"   *==--;>-=,   ",
"   ;'))'')''!~  ",
"  {]]]]]]]]]^   ",
"  /%%%%%%%%%    ",
"  (_::::::::    ",
"  <[}}}}}}}}|   ",
"  12333333334   ",
"  567887888889  ",
"   0aaaaaaaaab  ",
"   cdeeeffeeg   ",
"    hijkklimn   ",
"                "};
