/* XPM */
static char * Arch_xpm[] = {
"16 16 35 1",
" 	c None",
".	c #1793D1",
"+	c #289BD5",
"@	c #1E97D2",
"#	c #2098D3",
"$	c #279BD4",
"%	c #249AD4",
"&	c #45A9DA",
"*	c #31A0D6",
"=	c #309FD6",
"-	c #2D9DD5",
";	c #34A1D7",
">	c #3BA5D8",
",	c #38A2D7",
"'	c #35A1D7",
")	c #33A0D6",
"!	c #4FADDD",
"~	c #46A9DA",
"{	c #44A8DA",
"]	c #41A6D9",
"^	c #3EA5D9",
"/	c #3BA4D8",
"(	c #40A7D9",
"_	c #50AEDC",
":	c #4BABDB",
"<	c #3AA4D8",
"[	c #39A3D7",
"}	c #3AA3D8",
"|	c #55B0DD",
"1	c #53AFDC",
"2	c #1391D0",
"3	c #1693D1",
"4	c #1692D1",
"5	c #1491D0",
"6	c #1994D2",
"                ",
"       .+       ",
"       @#       ",
"       $%&      ",
"      *=-;      ",
"      >,')!     ",
"     ~{]^/(     ",
"     _:]<[}|    ",
"    1)23..34    ",
"    5.......6   ",
"   ....  ....   ",
"  ....    ....  ",
"  ....    ...   ",
" .....    ..... ",
" ..          .. ",
".              ."};
