/* XPM */
static char * ClojureScript_xpm[] = {
"16 16 112 2",
"  	c None",
". 	c #FFFFFF",
"+ 	c #E9F4D9",
"@ 	c #F3F9EA",
"# 	c #E3E9F5",
"$ 	c #DFE6F3",
"% 	c #FDFEFC",
"& 	c #D9ECBE",
"* 	c #95C949",
"= 	c #9DCE57",
"- 	c #D9EBBD",
"; 	c #A5B7DD",
"> 	c #6887C4",
", 	c #5F81C1",
"' 	c #CED8EC",
") 	c #FEFFFF",
"! 	c #A1D05F",
"~ 	c #B4D97E",
"{ 	c #FFFFFE",
"] 	c #FEFEFF",
"^ 	c #F8F9FC",
"/ 	c #7D97CC",
"( 	c #7491C9",
"_ 	c #FDFEFB",
": 	c #A1D05E",
"< 	c #D6EAB9",
"[ 	c #ABBCDE",
"} 	c #7D98CC",
"| 	c #D3E8B3",
"1 	c #B8DB87",
"2 	c #869FD0",
"3 	c #B5C5E2",
"4 	c #93C946",
"5 	c #F9FCF4",
"6 	c #FCFEFA",
"7 	c #EFF2F9",
"8 	c #F2F5FA",
"9 	c #EBEFF8",
"0 	c #6A89C5",
"a 	c #E2F1CE",
"b 	c #A0CF5D",
"c 	c #FEFFFE",
"d 	c #FAFCF6",
"e 	c #E7F3D6",
"f 	c #F5FAEE",
"g 	c #E9EEF7",
"h 	c #EFF1F9",
"i 	c #F7F9FC",
"j 	c #FCFCFE",
"k 	c #728FC8",
"l 	c #FEFEFE",
"m 	c #DAEDC0",
"n 	c #B7DB84",
"o 	c #B3D97D",
"p 	c #E0EFCA",
"q 	c #EEF6E1",
"r 	c #BCCAE5",
"s 	c #CFD9EC",
"t 	c #B5C3E1",
"u 	c #F3F6FB",
"v 	c #98AED7",
"w 	c #D5DDEF",
"x 	c #DAECBF",
"y 	c #B9DB87",
"z 	c #A0CF5C",
"A 	c #BBC9E5",
"B 	c #CBD6EB",
"C 	c #F6F8FC",
"D 	c #A6B8DD",
"E 	c #9AAFD8",
"F 	c #D3DCEE",
"G 	c #E1F0CA",
"H 	c #A3D061",
"I 	c #CDE6A9",
"J 	c #C1E095",
"K 	c #DEEEC6",
"L 	c #E9F4DA",
"M 	c #F6FAF0",
"N 	c #BCC9E5",
"O 	c #CDD7EB",
"P 	c #BAC9E4",
"Q 	c #B7C6E3",
"R 	c #7793CA",
"S 	c #F8F8FC",
"T 	c #F6FBF0",
"U 	c #96CA4C",
"V 	c #FEFEFC",
"W 	c #A2B5DB",
"X 	c #F5F7FB",
"Y 	c #6483C2",
"Z 	c #C8E3A1",
"` 	c #C4E29A",
" .	c #FAFAFD",
"..	c #95ABD5",
"+.	c #A8BADD",
"@.	c #FBFDF8",
"#.	c #E1F0CB",
"$.	c #B5C4E2",
"%.	c #9BCC54",
"&.	c #C2E097",
"*.	c #FCFDFE",
"=.	c #9BB0D8",
"-.	c #BDDE8E",
";.	c #98CB4F",
">.	c #E7F3D7",
",.	c #C9D3EB",
"'.	c #5F80C1",
").	c #A0B4D9",
"!.	c #EAF4DC",
"~.	c #EDF5E0",
"{.	c #D5DEF0",
"].	c #E5EAF5",
"          . + @ # $ .           ",
"      % & * = - ; > , ' )       ",
"    . ! ~ { { . . ] ^ / ( .     ",
"  _ : < . . . . . . . . [ } .   ",
"  | 1 . . . . . . . . . . 2 3   ",
"_ 4 . . . . 5 6 7 8 . . . 9 0 . ",
"a b . c d % e f g h ] i j . k l ",
"m n . o p q e f r s t u g . v w ",
"x y . z . . e f A B C D A . E F ",
"G H . I J K L M N O F P Q . R S ",
"T U V . . . . . W F . . . X Y . ",
"  Z ` . . . . .  .. . . . ..+.  ",
"  @.U #.. . . . . . . . $.R .   ",
"    T %.&.{ . . . . *.=.( 8     ",
"      . -.;.~ >.,.2 '.)..       ",
"          . !.~.{.]..           "};
