/* XPM */
static char * Clojure_xpm[] = {
"16 16 65 1",
" 	c None",
".	c #FFFFFF",
"+	c #63B132",
"@	c #5881D8",
"#	c #90B4FE",
"$	c #91DC47",
"%	c #F5F7FD",
"&	c #ACC0EC",
"*	c #82A1E2",
"=	c #F5FAF2",
"-	c #B1D899",
";	c #6289DA",
">	c #6DB63F",
",	c #97B0E7",
"'	c #D8ECCC",
")	c #E0E7F8",
"!	c #9ECE7F",
"~	c #ECF5E5",
"{	c #D5E0F5",
"]	c #6D91DD",
"^	c #8AC565",
"/	c #CEE7BF",
"(	c #98DE53",
"_	c #97B9FE",
":	c #A7D38C",
"<	c #EAF8DD",
"[	c #F8FDF4",
"}	c #7799DF",
"|	c #A1B8E9",
"1	c #77BB4C",
"2	c #E2F0D9",
"3	c #80C058",
"4	c #F8FAFF",
"5	c #F1FBE8",
"6	c #94C972",
"7	c #D6F2BA",
"8	c #CBD8F3",
"9	c #BAE98C",
"0	c #ACC7FE",
"a	c #E4F6D1",
"b	c #E3ECFF",
"c	c #C8EEA3",
"d	c #ADE575",
"e	c #8CA8E4",
"f	c #DCE8FF",
"g	c #C0D0F0",
"h	c #EAF1FF",
"i	c #B3E781",
"j	c #C8DAFF",
"k	c #A6E36A",
"l	c #B3CBFE",
"m	c #BBDDA5",
"n	c #F1F6FF",
"o	c #9FE05E",
"p	c #EAEFFA",
"q	c #D5E3FF",
"r	c #C5E2B2",
"s	c #C1D5FE",
"t	c #A5C2FE",
"u	c #DDF4C6",
"v	c #9EBDFE",
"w	c #BAD0FE",
"x	c #C1EB98",
"y	c #CFF0AF",
"z	c #CEDEFF",
"     ......     ",
"   ..@@@@@@..   ",
"  .e@@@@@@@@}.  ",
" .,..)@))@@@@e. ",
" ..^+..##_.@@@. ",
"..++.$(.###.@@@.",
".+++9$$.###l@@@.",
".++:$$$a####&@@.",
".++^$$$5f###*@@.",
".+++a$.$.##b@@@.",
".+++.$.$.b#.@@..",
" .+++..$$...... ",
"  =++++++++++=  ",
"  ..++++++++..  ",
"    .++++++.    ",
"     ......     "};
