/* XPM */
static char * list_xpm[] = {
"16 16 30 1",
" 	c None",
".	c #00C700",
"+	c #007F00",
"@	c #008800",
"#	c #008700",
"$	c #00E900",
"%	c #000000",
"&	c #000100",
"*	c #008900",
"=	c #004C00",
"-	c #002400",
";	c #004800",
">	c #005100",
",	c #002800",
"'	c #008000",
")	c #007E00",
"!	c #004100",
"~	c #008F00",
"{	c #004900",
"]	c #000200",
"^	c #009100",
"/	c #009800",
"(	c #00A100",
"_	c #004000",
":	c #003700",
"<	c #009A00",
"[	c #007700",
"}	c #009900",
"|	c #002F00",
"1	c #00FF00",
"                ",
" .+@##########. ",
" +$%%%%%%%&%&%# ",
" *+%%=--;=%>%,# ",
" ')!>%%%%%%%%%# ",
" +~{&%%]%]%%%&# ",
" '^%%//%(%/~/%# ",
" ')_>%%%%%%%%%# ",
" +~{&%%%%%%%&%# ",
" @:!%>;~;;~/%%# ",
" '<%>%%%%%%%%%# ",
" [+}&%%%%%]%%&# ",
" '@#%/~;;/%//%# ",
" '%|!%%%%%%%%%' ",
" 11111111111111 ",
"                "};
