/* XPM */
static char * Command_Line_xpm[] = {
"16 16 37 1",
" 	c #FFFFFF",
".	c #C2C2C2",
"+	c #383838",
"@	c #353535",
"#	c #9A9A9A",
"$	c #B4B4B4",
"%	c #000000",
"&	c #7E7E7E",
"*	c #020202",
"=	c #B6B6B6",
"-	c #BABABA",
";	c #ACACAC",
">	c #030303",
",	c #FAFAFA",
"'	c #F4F4F4",
")	c #BFBFBF",
"!	c #ECECEC",
"~	c #838383",
"{	c #B9B9B9",
"]	c #7D7D7D",
"^	c #C9C9C9",
"/	c #212121",
"(	c #262626",
"_	c #FEFEFE",
":	c #8D8D8D",
"<	c #202020",
"[	c #171717",
"}	c #2F2F2F",
"|	c #F6F6F6",
"1	c #EEEEEE",
"2	c #F1F1F1",
"3	c #F7F7F7",
"4	c #242424",
"5	c #C6C6C6",
"6	c #3F3F3F",
"7	c #3B3B3B",
"8	c #9D9D9D",
"                ",
"                ",
" .+++++++++++@# ",
" $%%%%%%%%%%%%& ",
" $%%%%%%%%%%%%& ",
" $*=--------;%& ",
" $>,')      !%& ",
" $>,~%{     !%& ",
" $>, ]%^    !%& ",
" $>, /( ____!%& ",
" $>,:<  [%%}|%& ",
" $>     1!!23%& ",
" $%(((((((((4%& ",
" 56666666666678 ",
"                ",
"                "};
