/* XPM */
static char * CSS3_xpm[] = {
"16 16 106 2",
"  	c None",
". 	c #5D9ECA",
"+ 	c #529ACB",
"@ 	c #1A7BBC",
"# 	c #197BBC",
"$ 	c #2791CA",
"% 	c #2892CC",
"& 	c #1E86C4",
"* 	c #69A4CD",
"= 	c #5C9FCD",
"- 	c #0E74B9",
"; 	c #0B72B8",
"> 	c #0871B8",
", 	c #0971B8",
"' 	c #2BA5DA",
") 	c #2DA8DC",
"! 	c #2CA7DC",
"~ 	c #2EA8DB",
"{ 	c #1D8ECA",
"] 	c #69A3CA",
"^ 	c #67A5CD",
"/ 	c #0D74B8",
"( 	c #60A0CC",
"_ 	c #FFF9F3",
": 	c #F5F2F0",
"< 	c #FFFFFF",
"[ 	c #96D3ED",
"} 	c #1C8CC9",
"| 	c #669FC8",
"1 	c #75AACF",
"2 	c #2481BE",
"3 	c #68A5CE",
"4 	c #5EA0CC",
"5 	c #5D9FCC",
"6 	c #78C5E7",
"7 	c #95D3ED",
"8 	c #FDFEFF",
"9 	c #77C5E7",
"0 	c #278FCA",
"a 	c #0F74B9",
"b 	c #046FB6",
"c 	c #3D8DC4",
"d 	c #4E98C8",
"e 	c #69C0E5",
"f 	c #90D1ED",
"g 	c #5FBCE3",
"h 	c #2D8FC9",
"i 	c #0C73B8",
"j 	c #006DB5",
"k 	c #A5C6DD",
"l 	c #ECEDEE",
"m 	c #FEFFFF",
"n 	c #49B2DF",
"o 	c #2D8CC5",
"p 	c #1176B9",
"q 	c #3288C1",
"r 	c #3388C2",
"s 	c #3A8CC4",
"t 	c #55B7E1",
"u 	c #9CD6EE",
"v 	c #31A8DB",
"w 	c #2E89C3",
"x 	c #1175B9",
"y 	c #217EBD",
"z 	c #CCDCE7",
"A 	c #63A2CC",
"B 	c #20A1D8",
"C 	c #9BD6EE",
"D 	c #26A3D8",
"E 	c #2D85C0",
"F 	c #2581BF",
"G 	c #1D7CBC",
"H 	c #C6D8E5",
"I 	c #EAECED",
"J 	c #D1DEE8",
"K 	c #DFF1F8",
"L 	c #F3FAFD",
"M 	c #26A3D9",
"N 	c #2B81BD",
"O 	c #4091C7",
"P 	c #0871B7",
"Q 	c #1F7EBD",
"R 	c #69A5CE",
"S 	c #B6D0E1",
"T 	c #D0ECF7",
"U 	c #85CDEB",
"V 	c #3EB0DF",
"W 	c #29A0D6",
"X 	c #2C81BD",
"Y 	c #67A6D0",
"Z 	c #0E75B9",
"` 	c #0670B7",
" .	c #016DB5",
"..	c #006CB5",
"+.	c #209FD7",
"@.	c #209BD4",
"#.	c #1F95D0",
"$.	c #1E8AC6",
"%.	c #4791C5",
"&.	c #639DC3",
"*.	c #5496C3",
"=.	c #3F90C5",
"-.	c #1983C3",
";.	c #4294C8",
">.	c #5396C3",
",.	c #669DC3",
"                                ",
"                        .       ",
"    + @ # # # # $ % % % & *     ",
"    = - ; > > , ' ) ! ~ { ]     ",
"    ^ / ( _ : : < < < [ } |     ",
"    1 - 2 3 4 5 6 7 8 9 0       ",
"      a ; b c d e f < g h       ",
"      a i j k l m < < n o       ",
"      - p q r s t u < v w       ",
"      x y z A j B C m D E       ",
"      F G H I J K < L M N       ",
"      O P Q R S T U V W X       ",
"      Y Z `  ...+.@.#.$.%.      ",
"        &.*.=.Z -.;.>.,.        ",
"                                ",
"                                "};
