/* XPM */
static char * Email_xpm[] = {
"16 16 90 1",
" 	c None",
".	c #C1C1C1",
"+	c #CACACA",
"@	c #E7E7E7",
"#	c #CFCFCE",
"$	c #C5B7BB",
"%	c #D09FA2",
"&	c #CF9FA3",
"*	c #CBB5B8",
"=	c #D8DADD",
"-	c #D7D7DA",
";	c #D8D9DC",
">	c #CDC3C5",
",	c #D0B7BB",
"'	c #D1B7BA",
")	c #CF9194",
"!	c #DA0000",
"~	c #E09CA0",
"{	c #E3E6EC",
"]	c #E3E5EB",
"^	c #E1A1A5",
"/	c #CDBDC2",
"(	c #C58C90",
"_	c #D80101",
":	c #D80808",
"<	c #D90303",
"[	c #D80000",
"}	c #DC888B",
"|	c #DC9498",
"1	c #BEB1B6",
"2	c #BEBEBD",
"3	c #C6999D",
"4	c #D70201",
"5	c #D70000",
"6	c #D6ADB3",
"7	c #D60505",
"8	c #D60404",
"9	c #D69398",
"0	c #C5BCC0",
"a	c #C2C2C3",
"b	c #BFBFC8",
"c	c #DFCFD5",
"d	c #D52E2E",
"e	c #D30000",
"f	c #CFDCE4",
"g	c #CFB6BD",
"h	c #D31212",
"i	c #D30C0C",
"j	c #CFB0B6",
"k	c #CFC0C7",
"l	c #D40000",
"m	c #D82F2F",
"n	c #D8D7DE",
"o	c #B1B0BC",
"p	c #BCBCC5",
"q	c #CFCFD9",
"r	c #D5DEE7",
"s	c #D29295",
"t	c #AEB3BB",
"u	c #C5C5CE",
"v	c #C9BDC6",
"w	c #C9B1B9",
"x	c #C7C7D0",
"y	c #B3A6AD",
"z	c #D28C90",
"A	c #CAD2DE",
"B	c #C3C3CF",
"C	c #AEAFB9",
"D	c #D0D0DA",
"E	c #DADAE1",
"F	c #A9A9AD",
"G	c #828289",
"H	c #85858C",
"I	c #A1A1A5",
"J	c #CFCFD8",
"K	c #C2C3CF",
"L	c #C3C4D0",
"M	c #C4C4D0",
"N	c #AFAFB9",
"O	c #BBBCC5",
"P	c #CFD0DA",
"Q	c #D3D3D9",
"R	c #C1C1C8",
"S	c #C5C4D1",
"T	c #BCBCC4",
"U	c #C4C4D1",
"V	c #AEAEB6",
"W	c #BCBBC5",
"X	c #B1B1BC",
"Y	c #A2A2AC",
"                ",
"        .       ",
"      +@@#      ",
"  $%&*=--;>,'   ",
"  )!!!~{]^!!!/  ",
"  (_:<[}|[<:[1  ",
" 2345678889550a ",
" bcdefghijklmno ",
" pqrstuvwxyzABC ",
" pDDqEFGHIJKLMN ",
" ODDDDPQRSMMMMN ",
" TDDDDDDMMMMMMN ",
" pDDDDDDMMMMMMC ",
" TDDDDDDUMMMMMN ",
" VWppTppXXXXXXY ",
"                "};
