/* XPM */
static char * GFW_xpm[] = {
"16 16 121 2",
"  	c None",
". 	c #06A406",
"+ 	c #CD263C",
"@ 	c #9D3745",
"# 	c #CA2F42",
"$ 	c #05FF05",
"% 	c #02FF02",
"& 	c #04FF05",
"* 	c #009B00",
"= 	c #426122",
"- 	c #9D1825",
"; 	c #812933",
"> 	c #AE2031",
", 	c #BB1F31",
"' 	c #C62034",
") 	c #984C57",
"! 	c #0FF207",
"~ 	c #00FF00",
"{ 	c #00DE00",
"] 	c #038205",
"^ 	c #562B32",
"/ 	c #44191D",
"( 	c #73242B",
"_ 	c #912A34",
": 	c #B03644",
"< 	c #CB293D",
"[ 	c #C42135",
"} 	c #BB2032",
"| 	c #BB2132",
"1 	c #2BA20B",
"2 	c #00D000",
"3 	c #036002",
"4 	c #D72B3D",
"5 	c #CE4A58",
"6 	c #CB2236",
"7 	c #C44153",
"8 	c #71262E",
"9 	c #2A040F",
"0 	c #037A00",
"a 	c #00B100",
"b 	c #000B00",
"c 	c #ED3346",
"d 	c #DE3748",
"e 	c #AC4352",
"f 	c #A8414F",
"g 	c #CB2539",
"h 	c #BF1F32",
"i 	c #3B1316",
"j 	c #0A0102",
"k 	c #03FE03",
"l 	c #017401",
"m 	c #E35465",
"n 	c #CC1D32",
"o 	c #C11E32",
"p 	c #D6273D",
"q 	c #D02339",
"r 	c #390B0F",
"s 	c #000000",
"t 	c #06F706",
"u 	c #002B00",
"v 	c #FF2F47",
"w 	c #C82439",
"x 	c #C62236",
"y 	c #DA243A",
"z 	c #BD2A3D",
"A 	c #512127",
"B 	c #C92035",
"C 	c #C52035",
"D 	c #AD5865",
"E 	c #C04B5B",
"F 	c #D12238",
"G 	c #160406",
"H 	c #AA5D68",
"I 	c #9F3040",
"J 	c #CF2238",
"K 	c #CF2338",
"L 	c #C82236",
"M 	c #C82337",
"N 	c #CA2137",
"O 	c #4B1118",
"P 	c #E8334A",
"Q 	c #CE2338",
"R 	c #B13242",
"S 	c #BE3E4E",
"T 	c #C9263A",
"U 	c #C92639",
"V 	c #CA2539",
"W 	c #AC5260",
"X 	c #D01E33",
"Y 	c #C72236",
"Z 	c #CA2337",
"` 	c #881A27",
" .	c #DE2E44",
"..	c #D22238",
"+.	c #A05964",
"@.	c #D31D33",
"#.	c #CC2337",
"$.	c #CA2237",
"%.	c #C92237",
"&.	c #AF3747",
"*.	c #C54657",
"=.	c #C02134",
"-.	c #801C2A",
";.	c #1C080B",
">.	c #CC3548",
",.	c #AE4957",
"'.	c #CA2136",
").	c #CE2238",
"!.	c #CC2237",
"~.	c #B91A2E",
"{.	c #734E56",
"].	c #681F29",
"^.	c #1B0A0D",
"/.	c #BB3445",
"(.	c #A42D3C",
"_.	c #8F2633",
":.	c #7D2F3A",
"<.	c #741D29",
"[.	c #621923",
"}.	c #45171D",
"|.	c #1C0307",
"                                ",
"        .   + @ #               ",
"  $ % & * = - ; > , ' )         ",
"    ! ~ { ] ^ / ( _ : < [       ",
"  } | 1 ~ 2 3       4 5 6 [     ",
"  7 8 9 0 ~ a b       c d e f   ",
"g h i j     k l         m n o   ",
"p q r s       t u       v w x   ",
"y z A s                   B C   ",
"D E F G                 x H I   ",
"  J K L               M x N O   ",
"  P K Q R S T U V W X Y Z ` s   ",
"     ...+.@.#.$.%.&.*.=.-.;.    ",
"      >.,.'.K ).!.~.{.].^.      ",
"        /.(._.:.<.[.}.|.        ",
"                                "};
