/* XPM */
static char * Git_xpm[] = {
"16 16 17 1",
" 	c None",
".	c #F05033",
"+	c #F05033",
"@	c #F05033",
"#	c #F05033",
"$	c #F05033",
"%	c #F05033",
"&	c #F05033",
"*	c #F05033",
"=	c #F05033",
"-	c #F05033",
";	c #F05033",
">	c #F05033",
",	c #F05033",
"'	c #F05033",
")	c #F05033",
"!	c #F05033",
"       !!       ",
"      !!!!      ",
"       !!!!     ",
"    !!  !!!!    ",
"   !!!!  !!!!   ",
"  !!!!!   !!!!  ",
" !!!!!!!   !!!! ",
"!!!!!!!! !  !!!!",
"!!!!!!!! !  $!!!",
" !!!!!!! !!!!!! ",
"  !!!!!  !!!!!  ",
"   !!!!  !!!!   ",
"    !!!$ !!!    ",
"     !!!!!!     ",
"      !!!!      ",
"       !!       "};
