/* XPM */
static char * GitHub Octocat_xpm[] = {
"16 16 129 2",
"  	c #FFFFFF",
". 	c #F7F7F7",
"+ 	c #6D6D6D",
"@ 	c #CACACA",
"# 	c #EDEDED",
"$ 	c #E1E1E1",
"% 	c #E3E3E3",
"& 	c #EBEBEB",
"* 	c #9C9C9C",
"= 	c #8D8D8D",
"- 	c #080808",
"; 	c #050505",
"> 	c #242424",
", 	c #101010",
"' 	c #121212",
") 	c #212121",
"! 	c #000000",
"~ 	c #282828",
"{ 	c #0E0E0E",
"] 	c #292929",
"^ 	c #FCFCFC",
"/ 	c #949494",
"( 	c #010101",
"_ 	c #D7D7D7",
": 	c #505050",
"< 	c #B78C74",
"[ 	c #EAB395",
"} 	c #D3A186",
"| 	c #D6A488",
"1 	c #EEB598",
"2 	c #916F5D",
"3 	c #ABABAB",
"4 	c #606161",
"5 	c #745749",
"6 	c #F9BFAB",
"7 	c #E4B3A8",
"8 	c #FFC3A1",
"9 	c #FFC4A2",
"0 	c #E2B0A6",
"a 	c #FFC4AE",
"b 	c #30241E",
"c 	c #B8B8B8",
"d 	c #F0F0F0",
"e 	c #E8E8E8",
"f 	c #DCDCDC",
"g 	c #8F8F90",
"h 	c #7D5E4D",
"i 	c #EEB3A1",
"j 	c #DFAFA5",
"k 	c #FEBF9F",
"l 	c #FFC2A1",
"m 	c #DCA9A2",
"n 	c #F5B9A4",
"o 	c #42322B",
"p 	c #B2B2B2",
"q 	c #F2F2F2",
"r 	c #F4F4F4",
"s 	c #FAFAFA",
"t 	c #474443",
"u 	c #CB9F86",
"v 	c #F7C0A2",
"w 	c #F6B193",
"x 	c #FEBC9C",
"y 	c #F9C3A5",
"z 	c #C59A82",
"A 	c #3F4142",
"B 	c #FDFDFD",
"C 	c #F8F8F8",
"D 	c #F6F6F6",
"E 	c #6C7371",
"F 	c #EFF0F0",
"G 	c #C9C6C5",
"H 	c #736A66",
"I 	c #261A17",
"J 	c #271B17",
"K 	c #847B76",
"L 	c #C9C7C6",
"M 	c #F6F5F6",
"N 	c #F9FEFE",
"O 	c #D4E1E2",
"P 	c #898F8C",
"Q 	c #E9EBEA",
"R 	c #191819",
"S 	c #0A0A0A",
"T 	c #030303",
"U 	c #3C3C3C",
"V 	c #FEFEFD",
"W 	c #868887",
"X 	c #454746",
"Y 	c #4B4B4B",
"Z 	c #141414",
"` 	c #4D4E4F",
" .	c #2B2C2D",
"..	c #151515",
"+.	c #FFFFFE",
"@.	c #D1F6FE",
"#.	c #8ECDD9",
"$.	c #0D1A1B",
"%.	c #2D5159",
"&.	c #1E373B",
"*.	c #0D1516",
"=.	c #94DAE8",
"-.	c #D0F6FE",
";.	c #EBFCFE",
">.	c #64E3FF",
",.	c #59D2F9",
"'.	c #4EBAF4",
").	c #4EB5D2",
"!.	c #49AAC9",
"~.	c #4AB6F8",
"{.	c #5DD8F9",
"].	c #63E3FE",
"^.	c #E9FCFE",
"/.	c #F8FDFE",
"(.	c #96ECFD",
"_.	c #68E5FE",
":.	c #39ABFC",
"<.	c #48C2FF",
"[.	c #41B7FF",
"}.	c #3DB2FC",
"|.	c #69E7FE",
"1.	c #95EBFE",
"2.	c #F7FEFE",
"3.	c #FDFFFE",
"4.	c #F6FEFF",
"5.	c #D9EFFB",
"6.	c #C4EAFC",
"7.	c #C2E7FC",
"8.	c #DAF0FC",
"      . + @ # $ % & * =         ",
"      & - ; > , ' ) ! ~         ",
"      & { ! ! ! ! ! ! ] ^       ",
"      / ! ! ! ! ! ! ! ( _       ",
"      : ! < [ } | 1 2 ! 3       ",
"      4 5 6 7 8 9 0 a b c       ",
"d e f g h i j k l m n o p f e q ",
"r # s   t u v w x y z A B C # D ",
"      E F G H I J K L M         ",
"    N O P Q R S T U             ",
"      V W X ! Y ~ Z             ",
"            ! `  ...            ",
"      +.@.#.$.%.&.*.=.-.+.      ",
"      ;.>.,.'.).!.~.{.].^.      ",
"      /.(._.:.<.[.}.|.1.2.      ",
"        3.4.5.6.7.8.4.3.        "};
