/* XPM */
static char * GitHub Logo_xpm[] = {
"46 16 273 2",
"  	c #FFFFFF",
". 	c #FCFCFC",
"+ 	c #F9F9F9",
"@ 	c #F6F6F6",
"# 	c #F7F7F7",
"$ 	c #FDFDFD",
"% 	c #FEFEFE",
"& 	c #E2E2E2",
"* 	c #7F7C7E",
"= 	c #2D282B",
"- 	c #161114",
"; 	c #1C161A",
"> 	c #393538",
", 	c #B8B7B8",
"' 	c #D4D4D4",
") 	c #B9B7B8",
"! 	c #FAFAFA",
"~ 	c #C5C4C5",
"{ 	c #747072",
"] 	c #7F7C7D",
"^ 	c #E7E7E7",
"/ 	c #6A6769",
"( 	c #878586",
"_ 	c #E1E0E0",
": 	c #FBFBFB",
"< 	c #9E9C9D",
"[ 	c #6D6A6B",
"} 	c #AEADAD",
"| 	c #E6E5E5",
"1 	c #595557",
"2 	c #040003",
"3 	c #191518",
"4 	c #262225",
"5 	c #272327",
"6 	c #161215",
"7 	c #AAA8A9",
"8 	c #141012",
"9 	c #151014",
"0 	c #C1C0C1",
"a 	c #B4B3B4",
"b 	c #E8E8E8",
"c 	c #999799",
"d 	c #161115",
"e 	c #252023",
"f 	c #D5D4D4",
"g 	c #020001",
"h 	c #343033",
"i 	c #C7C5C6",
"j 	c #585457",
"k 	c #0B060A",
"l 	c #737071",
"m 	c #ABAAAA",
"n 	c #060104",
"o 	c #201C20",
"p 	c #747172",
"q 	c #BBBABA",
"r 	c #C3C2C3",
"s 	c #9F9D9E",
"t 	c #EAE9EA",
"u 	c #F8F8F8",
"v 	c #484347",
"w 	c #403C3F",
"x 	c #BDBCBD",
"y 	c #DEDDDE",
"z 	c #363235",
"A 	c #0E090C",
"B 	c #B3B2B3",
"C 	c #9C9A9C",
"D 	c #1C171B",
"E 	c #2B272A",
"F 	c #D8D7D8",
"G 	c #090408",
"H 	c #3A3639",
"I 	c #C9C8C9",
"J 	c #5C585B",
"K 	c #120D10",
"L 	c #777575",
"M 	c #F1F1F1",
"N 	c #726F71",
"O 	c #040002",
"P 	c #636062",
"Q 	c #F0F0EF",
"R 	c #979596",
"S 	c #7F7D7E",
"T 	c #DBDADA",
"U 	c #ABA9AA",
"V 	c #312D31",
"W 	c #181317",
"X 	c #747273",
"Y 	c #CDCDCD",
"Z 	c #949294",
"` 	c #1D181C",
" .	c #282427",
"..	c #DADADA",
"+.	c #E3E3E3",
"@.	c #BEBCBD",
"#.	c #0A0509",
"$.	c #3C383B",
"%.	c #ACABAB",
"&.	c #EDEDED",
"*.	c #B0AEAF",
"=.	c #D8D7D7",
"-.	c #5E5A5C",
";.	c #110C10",
">.	c #545153",
",.	c #838183",
"'.	c #B1AFB0",
").	c #F3F2F2",
"!.	c #EAEAEA",
"~.	c #535053",
"{.	c #0C060A",
"].	c #898788",
"^.	c #B9B8B9",
"/.	c #9B999A",
"(.	c #9C9B9B",
"_.	c #A3A1A2",
":.	c #0C070A",
"<.	c #1C171A",
"[.	c #817E7F",
"}.	c #312C2F",
"|.	c #0F0A0E",
"1.	c #140F14",
"2.	c #000000",
"3.	c #585657",
"4.	c #858285",
"5.	c #1E191D",
"6.	c #1B161A",
"7.	c #524F52",
"8.	c #555254",
"9.	c #494648",
"0.	c #413D40",
"a.	c #888687",
"b.	c #2C272A",
"c.	c #0C0709",
"d.	c #CAC9CA",
"e.	c #130E11",
"f.	c #615E60",
"g.	c #140F12",
"h.	c #080308",
"i.	c #140F13",
"j.	c #A9A8A9",
"k.	c #4A474A",
"l.	c #929091",
"m.	c #444043",
"n.	c #070205",
"o.	c #171314",
"p.	c #181217",
"q.	c #231E22",
"r.	c #868385",
"s.	c #292529",
"t.	c #B9B9B9",
"u.	c #918F90",
"v.	c #1F1A1E",
"w.	c #8B898B",
"x.	c #383438",
"y.	c #1A1517",
"z.	c #CBCBCB",
"A.	c #211D21",
"B.	c #9A9899",
"C.	c #514E50",
"D.	c #AAA9AA",
"E.	c #595658",
"F.	c #070206",
"G.	c #605D5F",
"H.	c #EBEBEB",
"I.	c #555154",
"J.	c #0A0408",
"K.	c #868485",
"L.	c #ADACAD",
"M.	c #1A1519",
"N.	c #211D1E",
"O.	c #ECECEC",
"P.	c #221D21",
"Q.	c #AFADAE",
"R.	c #E2E1E2",
"S.	c #1B1619",
"T.	c #251F24",
"U.	c #B2B0B1",
"V.	c #B7B6B7",
"W.	c #0C060B",
"X.	c #CCCBCB",
"Y.	c #211D20",
"Z.	c #615D60",
"`.	c #817F7F",
" +	c #9D9B9C",
".+	c #151013",
"++	c #454144",
"@+	c #787677",
"#+	c #585557",
"$+	c #EBEBEA",
"%+	c #211C20",
"&+	c #AFACAE",
"*+	c #DEDEDE",
"=+	c #3F3C3E",
"-+	c #BAB8B9",
";+	c #9D9B9D",
">+	c #2C272B",
",+	c #D9D8D9",
"'+	c #080307",
")+	c #383437",
"!+	c #1A1518",
"~+	c #D0CFCF",
"{+	c #828080",
"]+	c #A3A1A1",
"^+	c #171216",
"/+	c #464346",
"(+	c #B6B5B6",
"_+	c #100B0F",
":+	c #191418",
"<+	c #595558",
"[+	c #939193",
"}+	c #625E60",
"|+	c #AEACAE",
"1+	c #413E41",
"2+	c #100C0F",
"3+	c #858384",
"4+	c #E5E5E5",
"5+	c #979697",
"6+	c #1C181B",
"7+	c #2B262A",
"8+	c #D6D5D6",
"9+	c #8C8A8C",
"0+	c #9D9A9C",
"a+	c #BCBBBC",
"b+	c #999898",
"c+	c #110C0F",
"d+	c #5D595B",
"e+	c #696668",
"f+	c #5E5B5E",
"g+	c #7C797B",
"h+	c #0D080C",
"i+	c #1E1A1C",
"j+	c #1B171A",
"k+	c #F4F4F4",
"l+	c #666465",
"m+	c #696769",
"n+	c #D4D3D4",
"o+	c #010000",
"p+	c #373336",
"q+	c #524E51",
"r+	c #1F1B1E",
"s+	c #0E090D",
"t+	c #969595",
"u+	c #5C595B",
"v+	c #221E21",
"w+	c #171316",
"x+	c #6F6C6E",
"y+	c #555153",
"z+	c #7C7A7A",
"A+	c #CCCCCC",
"B+	c #878585",
"C+	c #858385",
"D+	c #D3D2D3",
"E+	c #DAD9D9",
"F+	c #7D7B7C",
"G+	c #524E50",
"H+	c #989697",
"I+	c #BFBFBF",
"J+	c #838182",
"K+	c #8B898A",
"L+	c #E9E9E9",
"M+	c #7C797A",
"N+	c #939192",
"O+	c #CFCECF",
"P+	c #706D6E",
"Q+	c #504D4F",
"R+	c #716F70",
"S+	c #ACABAC",
"T+	c #C7C7C7",
"U+	c #ACAAAB",
"V+	c #A4A4A4",
"W+	c #625F61",
"X+	c #555253",
"          . + @ # + $     %             % . $       . $ %               $ . $               ",
"        & * = - ; > , % ' ) !   $ $ %   ~ { ] $   ^ / ( _             : < [ }               ",
"      | 1 2 3 4 5 6 7 # 8 9 7 ! 0 a b   c d e #   f g h i             # j k l               ",
"    % m n o p q r s t u v w x y z A B   C D E !   F G H I             + J K L   @           ",
"    M N O P Q         % R S T U V W X Y Z `  ...+.@.#.$.B q %.&.  *.7 =.-.;.>.R ,.'.).      ",
"    !.~.{.].  ^./.(._.@ :.<.[.}.|.1.2.3.4.5.6.7.8.9.|.0.a.b.c.d.  e.n R f.|.9 g.h.i.j.:     ",
"    b k.;.l.  m.2.n.o.&.p.q.R r.s.W P t.u.5.d v.v.` ;.0.w.x.y.z.  A.9 B.f.;.C.D.E.F.G.H.    ",
"    !.I.J.K.  L.E.M.N.O.p.P.Q.R.0.S.)   C ` T.U.V.B.W.w w.x.y.X.  Y.9 B.Z.i.`.   +.++++.    ",
"    ).@+g #+$+  m %+N.O.p.P.&+*+=+S.-+  ;+D >+:   ,+'+w w.)+!+~+  P.9 B.Z.i.{+  ]+^+/++.    ",
"      (+_+:+<+[+}+M.N.O.p.P.|+*+1+2+3+4+5+6+7+#   8+'+w 9+H |.0+a+` 9 b+f.c+d+X.e+G f+!.    ",
"      M g+k _+M.6 h+i+&.2+j+7 k+l+2 9 m+,.d e #   n+o+p+D.q+'+v.r+h+s+t+u+F..+v+w+F. +!     ",
"        k+^.x+q+y+z+A++ B+C+D+  E+F+G+H+I+J+K+:   L+M+N++.O+P+Q+R+S+] T+U+a.V+W+X+H+O.      ",
"          % : + u : %   $ . %     . u : % . $       . $ % % ! u ! % . $ $ . $ ! u .         ",
"                                                                                            ",
"                                                                                            ",
"                                                                                            "};
