/* XPM */
static char * GNU_xpm[] = {
"16 16 104 2",
"  	c None",
". 	c #FEFEFE",
"+ 	c #DDDDDD",
"@ 	c #B1B1B1",
"# 	c #818181",
"$ 	c #8D8D8D",
"% 	c #BEBEBE",
"& 	c #EAEAEA",
"* 	c #FDFDFD",
"= 	c #FFFFFF",
"- 	c #E6E6E6",
"; 	c #B7B7B7",
"> 	c #929292",
", 	c #ABABAB",
"' 	c #DEDEDE",
") 	c #909090",
"! 	c #7A7A7A",
"~ 	c #CBCBCB",
"{ 	c #D5D5D5",
"] 	c #E8E8E8",
"^ 	c #FBFBFB",
"/ 	c #DCDCDC",
"( 	c #DADADA",
"_ 	c #9C9C9C",
": 	c #797979",
"< 	c #D7D7D7",
"[ 	c #D1D1D1",
"} 	c #535353",
"| 	c #E0E0E0",
"1 	c #F8F8F8",
"2 	c #D3D3D3",
"3 	c #A6A6A6",
"4 	c #CCCCCC",
"5 	c #B3B3B3",
"6 	c #AEAEAE",
"7 	c #E2E2E2",
"8 	c #F3F3F3",
"9 	c #9E9E9E",
"0 	c #5C5C5C",
"a 	c #EBEBEB",
"b 	c #C2C2C2",
"c 	c #545454",
"d 	c #1E1E1E",
"e 	c #2F2F2F",
"f 	c #A2A2A2",
"g 	c #8F8F8F",
"h 	c #272727",
"i 	c #E7E7E7",
"j 	c #B0B0B0",
"k 	c #C9C9C9",
"l 	c #4D4D4D",
"m 	c #CDCDCD",
"n 	c #828282",
"o 	c #6F6F6F",
"p 	c #7D7D7D",
"q 	c #CFCFCF",
"r 	c #878787",
"s 	c #707070",
"t 	c #969696",
"u 	c #D4D4D4",
"v 	c #919191",
"w 	c #646464",
"x 	c #5D5D5D",
"y 	c #767676",
"z 	c #FCFCFC",
"A 	c #B8B8B8",
"B 	c #F1F1F1",
"C 	c #4B4B4B",
"D 	c #686868",
"E 	c #EDEDED",
"F 	c #BFBFBF",
"G 	c #959595",
"H 	c #E3E3E3",
"I 	c #A5A5A5",
"J 	c #D8D8D8",
"K 	c #E9E9E9",
"L 	c #B4B4B4",
"M 	c #F0F0F0",
"N 	c #E1E1E1",
"O 	c #DBDBDB",
"P 	c #ECECEC",
"Q 	c #F2F2F2",
"R 	c #BABABA",
"S 	c #C4C4C4",
"T 	c #D6D6D6",
"U 	c #F5F5F5",
"V 	c #BDBDBD",
"W 	c #F6F6F6",
"X 	c #F9F9F9",
"Y 	c #B5B5B5",
"Z 	c #D9D9D9",
"` 	c #A8A8A8",
" .	c #EFEFEF",
"..	c #FAFAFA",
"+.	c #989898",
"@.	c #F4F4F4",
"#.	c #A9A9A9",
"$.	c #696969",
"%.	c #838383",
"&.	c #313131",
"*.	c #EEEEEE",
"=.	c #6D6D6D",
"-.	c #3F3F3F",
";.	c #636363",
". + @ # $ % & * = = - ; > , ' = ",
"+ ) ! ~ ' { ] ^ * * / + ( _ : < ",
"[ } | = 1 2 _ 3 4 5 6 7 = 8 > 9 ",
"4 0 a * b c d e f g h : i ^ j # ",
"k l m 4 n o p 3 q [ r s t u v $ ",
"{ w x y / z A ; < 2 v B r C D b ",
"E F w G = 8 H I J . r ' K 0 L M ",
"= E N O . J ] P ] Q J R i S ] = ",
"= * u T q u U = ; V ] ~ ~ E W = ",
"= X Y b J / = & Z { B Q 4 = = = ",
"= . H ~ a { = K ] * = Z Z = = = ",
"= = z N i [ H = H Z J ` ^ = = = ",
"= = = E +  .R | ..Y +.T = = = = ",
"= = = . P @.#.$.P B b . = = = = ",
"= = = = . = & G %.&.< = = = = = ",
"= = = = = = . *.=.-.;.. = = = = "};
