/* XPM */
static char * Go_xpm[] = {
"16 16 78 1",
" 	c None",
".	c #5BA5B1",
"+	c #61ACB9",
"@	c #62AEBB",
"#	c #56A5B3",
"$	c #5596A1",
"%	c #518E99",
"&	c #B7D7DD",
"*	c #AECED3",
"=	c #75CDDB",
"-	c #94CCD6",
";	c #E0E2E3",
">	c #A7CFD6",
",	c #5599A4",
"'	c #60ABB7",
")	c #30535A",
"!	c #97BDC4",
"~	c #919292",
"{	c #FFFFFF",
"]	c #84CBD7",
"^	c #50585A",
"/	c #D8D8D8",
"(	c #F7F2F1",
"_	c #69C8D7",
":	c #5CA2AE",
"<	c #589BA7",
"[	c #72BDC9",
"}	c #F6FAFB",
"|	c #F3F8F9",
"1	c #4F828C",
"2	c #92AAAE",
"3	c #F3FAFC",
"4	c #ABCED3",
"5	c #75D1E1",
"6	c #4E8A95",
"7	c #68B9C6",
"8	c #74CEDD",
"9	c #72CEDE",
"0	c #64B7C7",
"a	c #F0CC9E",
"b	c #FAD09D",
"c	c #6CC1CF",
"d	c #75CFDE",
"e	c #5DA5B1",
"f	c #66B5C3",
"g	c #74D0DF",
"h	c #A4B4B7",
"i	c #8FBFC8",
"j	c #75D0DF",
"k	c #74CFDE",
"l	c #66B5C2",
"m	c #5EA6B3",
"n	c #68BAC7",
"o	c #569CA7",
"p	c #69BBCA",
"q	c #998263",
"r	c #689EA2",
"s	c #7BC1C8",
"t	c #968164",
"u	c #5CA4B0",
"v	c #6DC3D2",
"w	c #62ADBB",
"x	c #6EC4D2",
"y	c #65B2BF",
"z	c #6FC4D3",
"A	c #5BA1AD",
"B	c #5DA4B0",
"C	c #74CFDF",
"D	c #72CCDC",
"E	c #80AAA6",
"F	c #71C8D7",
"G	c #6EC6D5",
"H	c #869C90",
"I	c #9D8768",
"J	c #38636A",
"K	c #4B8590",
"L	c #4A818B",
"M	c #776750",
"      .+@#      ",
"   $%&*=-;>,'   ",
"   )!~{]^/(_:   ",
"   <[}|123456   ",
"   7890abc8de   ",
"   f88ghij8kl   ",
"   m88888888n   ",
"   o88888888p   ",
"  qr88888888st  ",
"   u88888888v   ",
"   w88888888x   ",
"   y88888888z   ",
"   A8888888dB   ",
"    C888888D    ",
"    EFdkkdGH    ",
"    I JKL  M    "};
