/* XPM */
static char * Security 2_xpm[] = {
"16 16 235 2",
"  	c None",
". 	c #58403B",
"+ 	c #AA867C",
"@ 	c #D19186",
"# 	c #E19085",
"$ 	c #E6908B",
"% 	c #E39190",
"& 	c #E5959A",
"* 	c #E29DA8",
"= 	c #E9C9D7",
"- 	c #ECA8B8",
"; 	c #C69087",
"> 	c #989186",
", 	c #7F867C",
"' 	c #5D403B",
") 	c #160605",
"! 	c #511716",
"~ 	c #730B0A",
"{ 	c #A3090D",
"] 	c #D50B1C",
"^ 	c #E9172F",
"/ 	c #CC2A41",
"( 	c #CF3450",
"_ 	c #F17FA1",
": 	c #FB7FA6",
"< 	c #AE263C",
"[ 	c #931425",
"} 	c #590D11",
"| 	c #760B0B",
"1 	c #1A1716",
"2 	c #170605",
"3 	c #290303",
"4 	c #5A0000",
"5 	c #990002",
"6 	c #CC0723",
"7 	c #E51A38",
"8 	c #E6294D",
"9 	c #DB445E",
"0 	c #D85162",
"a 	c #FFBADD",
"b 	c #CE5972",
"c 	c #CC3F5F",
"d 	c #9E1930",
"e 	c #B91C35",
"f 	c #460305",
"g 	c #5B0000",
"h 	c #060303",
"i 	c #3C0000",
"j 	c #760000",
"k 	c #AF0113",
"l 	c #D51131",
"m 	c #E11A3A",
"n 	c #FB7B90",
"o 	c #EC8793",
"p 	c #DE6080",
"q 	c #ED7EA2",
"r 	c #DF8895",
"s 	c #D0737F",
"t 	c #C42E4C",
"u 	c #8E0F21",
"v 	c #AA1721",
"w 	c #280101",
"x 	c #3D0000",
"y 	c #4F0000",
"z 	c #8C0004",
"A 	c #B6041B",
"B 	c #CD0D2C",
"C 	c #E92E4F",
"D 	c #FFE9ED",
"E 	c #CA2A48",
"F 	c #E46287",
"G 	c #E36589",
"H 	c #C83C57",
"I 	c #FFE7EB",
"J 	c #AB3349",
"K 	c #B21D2F",
"L 	c #790A10",
"M 	c #820D0D",
"N 	c #0E0000",
"O 	c #5E0000",
"P 	c #9A0008",
"Q 	c #B9031C",
"R 	c #C9062B",
"S 	c #F56E89",
"T 	c #FFE4E9",
"U 	c #E26177",
"V 	c #FBD6E2",
"W 	c #F5C8D1",
"X 	c #E5748C",
"Y 	c #FEEAF0",
"Z 	c #E07E8B",
"` 	c #8D0D18",
" .	c #94181A",
"..	c #360000",
"+.	c #490302",
"@.	c #640001",
"#.	c #95010C",
"$.	c #AB0114",
"%.	c #CE0E2C",
"&.	c #FDB1C1",
"*.	c #FFFFFF",
"=.	c #FED9DF",
"-.	c #F695AF",
";.	c #DF7D92",
">.	c #FFE2E6",
",.	c #D9A9AC",
"'.	c #720D10",
").	c #550D0C",
"!.	c #710E0D",
"~.	c #560000",
"{.	c #8E010C",
"].	c #9D0611",
"^.	c #FACDD0",
"/.	c #FFFCFF",
"(.	c #FFF6FA",
"_.	c #FCCDDA",
":.	c #F5C3CC",
"<.	c #F9E7E5",
"[.	c #F5F3F2",
"}.	c #DFCBCA",
"|.	c #852D29",
"1.	c #A63B37",
"2.	c #49100F",
"3.	c #4D0001",
"4.	c #C21C27",
"5.	c #FF828B",
"6.	c #F7BABE",
"7.	c #E54A5E",
"8.	c #FFFBFC",
"9.	c #DD7882",
"0.	c #F4A4A9",
"a.	c #FAA7AB",
"b.	c #EF8E8D",
"c.	c #FFFBFA",
"d.	c #C65E57",
"e.	c #DEB8B3",
"f.	c #AC7A76",
"g.	c #320807",
"h.	c #0B0000",
"i.	c #B20816",
"j.	c #EB2837",
"k.	c #D68186",
"l.	c #8C0712",
"m.	c #89040E",
"n.	c #FAE8E8",
"o.	c #BA4246",
"p.	c #E9C2C2",
"q.	c #DFC5C3",
"r.	c #713937",
"s.	c #EEE7E6",
"t.	c #2C0001",
"u.	c #2D0504",
"v.	c #8A7573",
"w.	c #200000",
"x.	c #030000",
"y.	c #8A0209",
"z.	c #610006",
"A.	c #923A42",
"B.	c #A51724",
"C.	c #79020E",
"D.	c #DF666C",
"E.	c #FEFBFB",
"F.	c #FCE0DF",
"G.	c #ECD5D2",
"H.	c #FAF6F5",
"I.	c #774645",
"J.	c #330002",
"K.	c #583C3B",
"L.	c #190000",
"M.	c #000000",
"N.	c #610002",
"O.	c #540002",
"P.	c #BD2437",
"Q.	c #9A2C39",
"R.	c #C72736",
"S.	c #75040E",
"T.	c #D97376",
"U.	c #FFFFFE",
"V.	c #965857",
"W.	c #4F0207",
"X.	c #480106",
"Y.	c #5F272A",
"Z.	c #390003",
"`.	c #0A0000",
" +	c #010000",
".+	c #1C0000",
"++	c #73010E",
"@+	c #63000B",
"#+	c #CC4555",
"$+	c #CB8C92",
"%+	c #FAD3D5",
"&+	c #F8F7F7",
"*+	c #F4BBBE",
"=+	c #E8B8B9",
"-+	c #FEF9F9",
";+	c #DDC7C6",
">+	c #AA8585",
",+	c #4C1E20",
"'+	c #220001",
")+	c #020000",
"!+	c #410000",
"~+	c #230000",
"{+	c #7A0412",
"]+	c #65010B",
"^+	c #AC2436",
"/+	c #6D0E18",
"(+	c #AC2C38",
"_+	c #BD313F",
":+	c #821722",
"<+	c #56080F",
"[+	c #500A10",
"}+	c #460108",
"|+	c #270000",
"1+	c #070000",
"2+	c #310000",
"3+	c #1A0000",
"4+	c #77020E",
"5+	c #4F0003",
"6+	c #9B1B28",
"7+	c #841320",
"8+	c #D94152",
"9+	c #59020B",
"0+	c #560007",
"a+	c #4B0003",
"b+	c #2F0000",
"c+	c #170000",
"d+	c #280000",
"e+	c #060000",
"f+	c #1C0001",
"g+	c #380000",
"h+	c #AA0C1C",
"i+	c #680A12",
"j+	c #350000",
"k+	c #240000",
"l+	c #0C0000",
"  . + @ # $ % & * = - ; > , '   ",
") ! ~ { ] ^ / ( _ : < [ } | 1 2 ",
"3 4 5 6 7 8 9 0 a b c d e f g h ",
"i j k l m n o p q r s t u v w x ",
"y z A B C D E F G H I J K L M N ",
"O P Q R S T U V W X Y Z `  ...+.",
"@.#.$.%.&.*.=.-.;.>.*.,.'.y ).!.",
"~.{.].^./.(.*._.:.*.<.[.}.|.1.2.",
"3.4.5.6.7.8.9.0.a.b.c.d.e.f.g.h.",
"i.j.k.l.m.n.o.p.q.r.s.t.u.v.w.x.",
"y.z.A.B.C.D.E.F.G.H.I.J.3 K.L.M.",
"N.O.P.Q.R.S.T.U.*.V.W.X.Y.Z.`. +",
".+++@+#+$+%+&+*+=+-+;+>+,+'+)+M.",
"!+~+{+]+^+/+(+_+:+<+[+}+|+1+)+M.",
"M.2+3+4+5+6+7+8+9+0+a+b+c+x.M.M.",
"  M.d+e+f+g+h+i+j+k+w.l+M.M.M.  "};
