/* XPM */
static char * Haskell_xpm[] = {
"20 16 134 2",
"  	c None",
". 	c #FDFDFD",
"+ 	c #FCFBFC",
"@ 	c #FCFCFC",
"# 	c #FCFCFD",
"$ 	c #65547D",
"% 	c #61507A",
"& 	c #6B5B82",
"* 	c #E7E2EE",
"= 	c #725897",
"- 	c #7B629E",
"; 	c #A290BA",
"> 	c #FFFFFF",
", 	c #F0F0F0",
"' 	c #A197B0",
") 	c #432E60",
"! 	c #483465",
"~ 	c #BDB6C6",
"{ 	c #AB9AC2",
"] 	c #66498E",
"^ 	c #5E4088",
"/ 	c #CDC4DB",
"( 	c #F6F6F6",
"_ 	c #695880",
": 	c #3D295C",
"< 	c #E7E3EB",
"[ 	c #6B4F91",
"} 	c #715696",
"| 	c #FDFDFE",
"1 	c #E8E5EC",
"2 	c #453163",
"3 	c #6C5C83",
"4 	c #EFECF4",
"5 	c #65488D",
"6 	c #836CA4",
"7 	c #F8EEF6",
"8 	c #CC9CC7",
"9 	c #CFA2CA",
"0 	c #CD9EC7",
"a 	c #F7F0F7",
"b 	c #F0F1EF",
"c 	c #B8B0C3",
"d 	c #442F61",
"e 	c #432F61",
"f 	c #A297B0",
"g 	c #A695BE",
"h 	c #63458C",
"i 	c #D3CEE0",
"j 	c #BE7EB5",
"k 	c #97368B",
"l 	c #922D86",
"m 	c #F0E0EE",
"n 	c #6D5E84",
"o 	c #463264",
"p 	c #ECEAEE",
"q 	c #775D9B",
"r 	c #62458B",
"s 	c #EEE5F0",
"t 	c #CC9CC6",
"u 	c #CFA1C9",
"v 	c #CD9DC7",
"w 	c #F8F1F7",
"x 	c #FEFEFE",
"y 	c #4A3667",
"z 	c #F0EEF1",
"A 	c #694D90",
"B 	c #8D78AB",
"C 	c #FAF3F8",
"D 	c #BA79B2",
"E 	c #BB7AB2",
"F 	c #B774AF",
"G 	c #F5EBF4",
"H 	c #9286A3",
"I 	c #422D60",
"J 	c #C7C1D0",
"K 	c #937DAF",
"L 	c #65478D",
"M 	c #BFB2D0",
"N 	c #BB78B2",
"O 	c #96348A",
"P 	c #97368C",
"Q 	c #DAD7E0",
"R 	c #443062",
"S 	c #473364",
"T 	c #7D6F91",
"U 	c #D8D1E2",
"V 	c #64468C",
"W 	c #63458B",
"X 	c #9C89B6",
"Y 	c #7E66A0",
"Z 	c #EEEAF3",
"` 	c #DFC0DA",
" .	c #E3C6DF",
"..	c #E1C4DD",
"+.	c #F9F4F8",
"@.	c #574471",
"#.	c #463363",
"$.	c #EEEBF2",
"%.	c #62448B",
"&.	c #7A619D",
"*.	c #ECE9F2",
"=.	c #61438A",
"-.	c #866FA6",
";.	c #FFFFFE",
">.	c #877B9A",
",.	c #463263",
"'.	c #D5D1DB",
").	c #947FB0",
"!.	c #5C3E87",
"~.	c #E2DCEA",
"{.	c #F6F7F6",
"].	c #BDB1CF",
"^.	c #63468C",
"/.	c #B5A7C9",
"(.	c #FBFBFB",
"_.	c #FAF9FB",
":.	c #9185A3",
"<.	c #9085A2",
"[.	c #9D92AD",
"}.	c #EAE5EF",
"|.	c #9D8AB6",
"1.	c #A391BB",
"2.	c #C4B9D4",
"3.	c #FAFCF9",
"4.	c #F9F9F9",
"5.	c #A493BC",
"6.	c #A796BE",
"7.	c #F0F0EF",
"8.	c #F6F6F5",
"9.	c #F4F5F4",
"0.	c #F3F3F2",
"a.	c #F5F6F4",
"b.	c #F1F1F0",
"c.	c #ECECEC",
"                                        ",
"  . + @ @ # @ @ .                       ",
"  # $ % & * = - ; >                     ",
"  , ' ) ! ~ { ] ^ / (                   ",
"    > _ ! : < [ ] } |                   ",
"      1 2 ! 3 4 5 5 6 7 8 9 9 9 9 0 a   ",
"      b c d e f g h ] i j k k k k l m   ",
"        > n ! o p q ] r s t u u u v w   ",
"        x % ! y z A ] ] B C D E E F G   ",
"      > H 2 I J K L 5 5 h M N O P l m   ",
"      Q R S T U V W X Y ] 5 Z `  ...+.  ",
"    > @.! #.$.%.] &.> *.=.] -.;.        ",
"  . >.,.! '.).] !.~.  {.].] ^./.(.      ",
"  _.:.<.[.}.|.1.2.3.    4.5.1.6.>       ",
"  7.8.8.9.0.a.a.b.        a.a.a.c.      ",
"                                        "};
