/* XPM */
static char * Idea_xpm[] = {
"16 16 101 2",
"  	c None",
". 	c #E5C08E",
"+ 	c #E5BA86",
"@ 	c #E2B67F",
"# 	c #E0A054",
"$ 	c #F9E9C9",
"% 	c #FBEFCA",
"& 	c #FCEECB",
"* 	c #FAEBCD",
"= 	c #E2A14F",
"- 	c #E39F4A",
"; 	c #F9D386",
"> 	c #FDE398",
", 	c #FEE89C",
"' 	c #FDE79C",
") 	c #FCE397",
"! 	c #F8D58E",
"~ 	c #E0A253",
"{ 	c #E0BF8E",
"] 	c #EEB145",
"^ 	c #F9D256",
"/ 	c #FFE36C",
"( 	c #FEE86F",
"_ 	c #FEE76F",
": 	c #FDE46A",
"< 	c #FBD158",
"[ 	c #EDB041",
"} 	c #E0A96E",
"| 	c #E1AC6F",
"1 	c #F8DB8B",
"2 	c #FEE140",
"3 	c #FFF042",
"4 	c #FEF761",
"5 	c #FDF664",
"6 	c #FDF143",
"7 	c #FDE145",
"8 	c #F9DE90",
"9 	c #DCA043",
"0 	c #DFAF6E",
"a 	c #F9E19C",
"b 	c #FDF072",
"c 	c #FFFDB8",
"d 	c #FFFDA7",
"e 	c #FFFCA4",
"f 	c #FFFDBD",
"g 	c #FEF489",
"h 	c #F9DF8A",
"i 	c #DDA249",
"j 	c #EBDAAE",
"k 	c #F0C978",
"l 	c #FCE25D",
"m 	c #FDE639",
"n 	c #FFE939",
"o 	c #FFE73A",
"p 	c #FEE63B",
"q 	c #FDDF57",
"r 	c #F0BE4C",
"s 	c #DBB47F",
"t 	c #E2AA5C",
"u 	c #F7C85D",
"v 	c #F9C93B",
"w 	c #FBCC36",
"x 	c #FACB36",
"y 	c #F2B73C",
"z 	c #DFA95E",
"A 	c #E2A251",
"B 	c #F5BB3D",
"C 	c #F9C336",
"D 	c #F9C53B",
"E 	c #F5BA3F",
"F 	c #E3A24D",
"G 	c #F3CA7B",
"H 	c #F7C649",
"I 	c #F5BD34",
"J 	c #EBAF49",
"K 	c #F0C685",
"L 	c #F6C85E",
"M 	c #F2B12D",
"N 	c #E5AF64",
"O 	c #EBB97C",
"P 	c #F1B659",
"Q 	c #EB9D2C",
"R 	c #E0A869",
"S 	c #9A8271",
"T 	c #D4AF88",
"U 	c #966E49",
"V 	c #988976",
"W 	c #8D8D8D",
"X 	c #DEDEDE",
"Y 	c #5D5D5D",
"Z 	c #858585",
"` 	c #D9D9D9",
" .	c #9E9E9E",
"..	c #656565",
"+.	c #484848",
"@.	c #B0B0B0",
"#.	c #DDDDDD",
"$.	c #D3D3D3",
"%.	c #C1C1C1",
"&.	c #C2C2C2",
"*.	c #D2D2D2",
"            . + @               ",
"          # $ % & * =           ",
"        - ; > , ' ) ! ~         ",
"      { ] ^ / ( _ : < [ }       ",
"      | 1 2 3 4 5 6 7 8 9       ",
"      0 a b c d e f g h i       ",
"      j k l m n o p q r s       ",
"        t u v w x v y z         ",
"          A B C D E F           ",
"            G H I J             ",
"            K L M N             ",
"            O P Q R             ",
"            S T U V             ",
"            W X Y Z             ",
"          `  ...+.@.#.          ",
"            $.%.&.*.            "};
