/* XPM */
static char * Bug_xpm[] = {
"16 16 178 2",
"  	c #C8C8C8",
". 	c #C3C3C3",
"+ 	c #BABABA",
"@ 	c #DADBDA",
"# 	c #7D7D7D",
"$ 	c #4E4F4E",
"% 	c #6C6C6B",
"& 	c #848483",
"* 	c #646463",
"= 	c #696969",
"- 	c #7B7B7B",
"; 	c #CDCDCD",
"> 	c #D6D6D6",
", 	c #C2C2C2",
"' 	c #BEBEBE",
") 	c #EBEBEB",
"! 	c #ECECEC",
"~ 	c #DCDCDC",
"{ 	c #383838",
"] 	c #BFBEBE",
"^ 	c #EFEFEF",
"/ 	c #E6E6E6",
"( 	c #EAEAEA",
"_ 	c #E7E7E7",
": 	c #E8E8E8",
"< 	c #EDEDED",
"[ 	c #C2C2C1",
"} 	c #565655",
"| 	c #E1E1E1",
"1 	c #C7C7C7",
"2 	c #252524",
"3 	c #E5E5E5",
"4 	c #E4E4E4",
"5 	c #E2E2E2",
"6 	c #3B3C3B",
"7 	c #BBBBBA",
"8 	c #C4C4C4",
"9 	c #C5C5C5",
"0 	c #4D4E4D",
"a 	c #999999",
"b 	c #DBDBDB",
"c 	c #9E9E9E",
"d 	c #9D9D9D",
"e 	c #ACACAC",
"f 	c #ADADAD",
"g 	c #565654",
"h 	c #A7A7A7",
"i 	c #666765",
"j 	c #909090",
"k 	c #DEDEDE",
"l 	c #BDBDBD",
"m 	c #C9C9C9",
"n 	c #DDDDDD",
"o 	c #AEAEAE",
"p 	c #A9A9A9",
"q 	c #7F7F7E",
"r 	c #AFAFAE",
"s 	c #535352",
"t 	c #E6EFEF",
"u 	c #DFE8E8",
"v 	c #DCE5E5",
"w 	c #E9EEEE",
"x 	c #D9E0E0",
"y 	c #E4EAEA",
"z 	c #E5F0F0",
"A 	c #626260",
"B 	c #535452",
"C 	c #F0F0F0",
"D 	c #EDEBEB",
"E 	c #E93333",
"F 	c #E93A3A",
"G 	c #E7BBBA",
"H 	c #E92A2A",
"I 	c #E98989",
"J 	c #E86464",
"K 	c #E74848",
"L 	c #E93C3B",
"M 	c #E7BABA",
"N 	c #E9EAEA",
"O 	c #70706F",
"P 	c #A4A4A5",
"Q 	c #B9B9B9",
"R 	c #7D7B7B",
"S 	c #EC0807",
"T 	c #EB4545",
"U 	c #E89797",
"V 	c #EB0000",
"W 	c #EA7473",
"X 	c #EA3C3C",
"Y 	c #E88989",
"Z 	c #E89494",
"` 	c #A6A8A8",
" .	c #717170",
"..	c #555553",
"+.	c #BCBCBC",
"@.	c #8A8A8A",
"#.	c #919090",
"$.	c #EA0807",
"%.	c #EA504F",
"&.	c #E76E6E",
"*.	c #E90202",
"=.	c #EA7575",
"-.	c #E93B3B",
";.	c #E90000",
">.	c #E94242",
",.	c #E66F6F",
"'.	c #8B8E8E",
").	c #9F9F9F",
"!.	c #5A5A59",
"~.	c #515150",
"{.	c #D4D4D4",
"].	c #C2C0C0",
"^.	c #E90D0E",
"/.	c #E90B0C",
"(.	c #E68080",
"_.	c #E83636",
":.	c #E91516",
"<.	c #E78686",
"[.	c #E71111",
"}.	c #E92323",
"|.	c #E77878",
"1.	c #E3E5E5",
"2.	c #676765",
"3.	c #595957",
"4.	c #F1F1F1",
"5.	c #E6E3E3",
"6.	c #E6E5E5",
"7.	c #E6E2E2",
"8.	c #E6E7E7",
"9.	c #E6E4E4",
"0.	c #F2F2F2",
"a.	c #464644",
"b.	c #919190",
"c.	c #60605F",
"d.	c #9B9B9B",
"e.	c #EEEEEE",
"f.	c #C1C1C1",
"g.	c #D3D3D3",
"h.	c #606160",
"i.	c #40403B",
"j.	c #40403F",
"k.	c #CFCFCF",
"l.	c #9C9C9C",
"m.	c #BBBBBB",
"n.	c #CECECE",
"o.	c #4A4948",
"p.	c #C4BEB8",
"q.	c #E3E3E3",
"r.	c #D7D7D7",
"s.	c #343432",
"t.	c #B2B2B2",
"u.	c #CCCCCC",
"v.	c #3F3F3D",
"w.	c #E4E8E9",
"x.	c #E2A08B",
"y.	c #D8D8D8",
"z.	c #D5D5D5",
"A.	c #2D2E2C",
"B.	c #A2A2A1",
"C.	c #E0E0E0",
"D.	c #E9E9E9",
"E.	c #A0A0A0",
"F.	c #3B3B3A",
"G.	c #E0E0DF",
"H.	c #E89C87",
"I.	c #CACACA",
"J.	c #979797",
"K.	c #818281",
"L.	c #242523",
"M.	c #4F4F4E",
"N.	c #7D7D7C",
"O.	c #7C7C7B",
"P.	c #4D4D4C",
"Q.	c #262725",
"R.	c #A9A9A8",
"S.	c #C0C0C0",
"T.	c #D5D9DA",
"U.	c #D69883",
"  . + @ # $ % % & * = - ; > , ' ",
") ! ~ { ] ^ / ( _ : < [ } | ! ! ",
"1 + 2 ) : 3 / 4 : 5 / : < 6 7 8 ",
"9 0 a ~ 3 b c . 9 d ~ 3 e f g , ",
"h i j k _ k c l m c n / o p q r ",
"s ^ 5 5 t u : v w x y z n _ / A ",
"B C _ D E F G H I J K L M N ^ O ",
"* P Q R S T U V W X V Y Z ` o  .",
"..+.@.#.$.%.&.*.=.-.;.>.,.'.).!.",
"~.{.( ].^./.(._.:.<.[.}.|.1.n 2.",
"3.4.3 / 5.5./ 6.7.8.6.9.6./ 0.a.",
"b.c.( l k d.e.l f.e.d.: g.5 h.i.",
"; j.k.| e l.^ m.f.! l.n./ . o.p.",
"q.r.s.t./ e ! 8 u._ t.) , v.w.x.",
"n y.z.A.B.C.( D.D.( C.E.F.G.G.H.",
"I.m.p J.K.L.M.N.O.P.Q.R.S.9 T.U."};
