/* XPM */
static char * Java_xpm[] = {
"16 16 116 2",
"  	c None",
". 	c #E7E9D7",
"+ 	c #E3E5D1",
"@ 	c #E3E6D1",
"# 	c #E2E4CF",
"$ 	c #F5F5F4",
"% 	c #E6E8D5",
"& 	c #E4E6D2",
"* 	c #E4E7D3",
"= 	c #E3E5D0",
"- 	c #FEFEFD",
"; 	c #F6F6F6",
"> 	c #E5D8C6",
", 	c #DEC2B2",
"' 	c #FFFFFF",
") 	c #E4EAD5",
"! 	c #E8948A",
"~ 	c #C0BAA9",
"{ 	c #D9DBC8",
"] 	c #F2F3EB",
"^ 	c #FCFCFB",
"/ 	c #F3F3F2",
"( 	c #E4EBD7",
"_ 	c #E8877E",
": 	c #D4766E",
"< 	c #D08B81",
"[ 	c #BFC0AF",
"} 	c #DADCC8",
"| 	c #C8CAB8",
"1 	c #BCBFAD",
"2 	c #BEC0AE",
"3 	c #88897F",
"4 	c #E6BDAD",
"5 	c #D0847B",
"6 	c #DE5753",
"7 	c #BEC8B6",
"8 	c #C0C2B1",
"9 	c #BFC1B0",
"0 	c #DBDDCA",
"a 	c #CBCDBC",
"b 	c #C1C3B2",
"c 	c #86877C",
"d 	c #D6837A",
"e 	c #E24947",
"f 	c #C1BFAE",
"g 	c #CDCFBD",
"h 	c #83857A",
"i 	c #E2E5D2",
"j 	c #B2CBCB",
"k 	c #EFDFC8",
"l 	c #D7A392",
"m 	c #C8C9B4",
"n 	c #89ACB5",
"o 	c #B3BDB2",
"p 	c #DDDFCB",
"q 	c #929387",
"r 	c #E7E7D2",
"s 	c #87B5C5",
"t 	c #6A9EB5",
"u 	c #80AAB9",
"v 	c #84AEBB",
"w 	c #88ACB5",
"x 	c #BDC1B1",
"y 	c #619CB7",
"z 	c #C1C3B1",
"A 	c #8B8C80",
"B 	c #ECEAD3",
"C 	c #61A0BF",
"D 	c #699FB7",
"E 	c #649DB7",
"F 	c #91AFB4",
"G 	c #C6C4B0",
"H 	c #C2C4B3",
"I 	c #7E8075",
"J 	c #CAD9D0",
"K 	c #9ABDC4",
"L 	c #92B8C3",
"M 	c #4F93B8",
"N 	c #4E94B8",
"O 	c #A7B8B3",
"P 	c #A6B7B3",
"Q 	c #C1C2B1",
"R 	c #7D7E73",
"S 	c #C5D6CE",
"T 	c #689FB7",
"U 	c #3E8EBA",
"V 	c #3B8CBB",
"W 	c #368ABA",
"X 	c #3489BA",
"Y 	c #5697B8",
"Z 	c #A3B6B3",
"` 	c #76776D",
" .	c #E2E4D0",
"..	c #E1E2CE",
"+.	c #C6C5B1",
"@.	c #C7C5B1",
"#.	c #C7C5B0",
"$.	c #919285",
"%.	c #E1E3CF",
"&.	c #E8EAD6",
"*.	c #E7E9D5",
"=.	c #E7EAD5",
"-.	c #C4C6B5",
";.	c #C3C5B4",
">.	c #BFC0B0",
",.	c #64655D",
"'.	c #797B70",
").	c #7D7E72",
"!.	c #7C7D72",
"~.	c #7C7C71",
"{.	c #75766C",
"].	c #68685F",
"^.	c #686960",
"/.	c #676960",
"(.	c #67685F",
"_.	c #65665D",
"                                ",
"    . + @ @ @ @ @ @ # $         ",
"  % & & & & & & * * = - ;       ",
"  & & & & & & & > , = - ' ;     ",
"  & & & & & & ) ! ~ { ] ^ ^ /   ",
"  & & & & & ( _ : < [ } | 1 2 3 ",
"  & & & & & 4 5 6 7 8 9 0 a b c ",
"  & & & & & * d e f 8 8 9 0 g h ",
"  & & & & i j k l m n o 8 9 p q ",
"  & & & r s t u v w x y 8 8 z A ",
"  & & & & B C D E F n G 8 8 H I ",
"  & & & J K L M N O P Q 8 8 H R ",
"  & & & S T U V W X Y Z 8 8 H ` ",
"   .& & & ..+.@.@.#.+.8 8 8 H   ",
"  $.%.&.*.=.+ -.;.;.;.;.;.>.,.  ",
"      '.).!.~.{.].^./.(._.      "};
