/* XPM */
static char * Julia_xpm[] = {
"16 11 11 1",
" 	c None",
".	c #FFFFFF",
"+	c #158700",
"@	c #148900",
"#	c #0022C4",
"$	c #000000",
"%	c #C80700",
"&	c #5D0089",
"*	c #0023C5",
"=	c #C00C00",
"-	c #5D0088",
"............+...",
"............@...",
"..#......$.%.&..",
"..*.....$$.=.-..",
"..$.$..$.$...$$.",
"..$.$.$$.$$$$..$",
"..$.$.$$.$$$.$$$",
"..$.$.$$.$$$$..$",
"..$.$$$$.$$$$$$$",
"..$.............",
"$$$............."};
