/* XPM */
static char * Linux_xpm[] = {
"13 16 82 1",
" 	c None",
".	c #000000",
"+	c #222222",
"@	c #040404",
"#	c #393939",
"$	c #6E6E6E",
"%	c #5A5A5A",
"&	c #878787",
"*	c #373942",
"=	c #8B752F",
"-	c #C2AA54",
";	c #ABA9A4",
">	c #6E4F00",
",	c #FFD501",
"'	c #FFCD0F",
")	c #E2B102",
"!	c #04050A",
"~	c #525357",
"{	c #B99C4A",
"]	c #CFAC4B",
"^	c #FCFBF8",
"/	c #181818",
"(	c #AAAAAA",
"_	c #F5F6F8",
":	c #FCFDFF",
"<	c #FFFFFF",
"[	c #4F4F4F",
"}	c #E9E9E9",
"|	c #FAFAFA",
"1	c #E0E0E0",
"2	c #ABABAB",
"3	c #8D8D8D",
"4	c #404040",
"5	c #090909",
"6	c #E2E2E2",
"7	c #F3F3F3",
"8	c #6C6C6C",
"9	c #070707",
"0	c #28230C",
"a	c #F2F2F4",
"b	c #E8E8E8",
"c	c #76777D",
"d	c #111111",
"e	c #FFDB25",
"f	c #9A957F",
"g	c #F9EDC4",
"h	c #826709",
"i	c #B29114",
"j	c #F9C70B",
"k	c #FFCF1D",
"l	c #FFD133",
"m	c #D6AD0B",
"n	c #3C3E47",
"o	c #C8B58C",
"p	c #F2BA00",
"q	c #DBA404",
"r	c #FFD12F",
"s	c #F8C718",
"t	c #FFD134",
"u	c #FFD530",
"v	c #B5A35A",
"w	c #735928",
"x	c #FFD41A",
"y	c #FFD22D",
"z	c #FFD131",
"A	c #F3C007",
"B	c #F5C319",
"C	c #FFD125",
"D	c #FFD32E",
"E	c #E7B000",
"F	c #4E5059",
"G	c #4D4D4D",
"H	c #785200",
"I	c #FFD520",
"J	c #FECE27",
"K	c #F1C122",
"L	c #B07600",
"M	c #D8A000",
"N	c #B17700",
"O	c #8C5800",
"P	c #CB9200",
"Q	c #B37600",
"     ..+     ",
"    ...@.    ",
"    #$%&.    ",
"    *=-;.    ",
"    >,')!    ",
"    ~{]^/.   ",
"    (_:<[.   ",
"   .}|<12..  ",
"   3<<<<<45  ",
"  56<7<<<89. ",
"  0a<b<<<cd. ",
"  ef<7<<gh.i ",
"jklmn<<<opqr ",
"stluv<<<wxytz",
"ABCDEFG.HIJK ",
"  LMN   OPQ  "};
