/* XPM */
static char * R_xpm[] = {
"16 16 119 2",
"  	c None",
". 	c #C5C8CB",
"+ 	c #C2C5C7",
"@ 	c #C0C3C6",
"# 	c #BDBFC2",
"$ 	c #BABDC0",
"% 	c #B8BABE",
"& 	c #B4B6BA",
"* 	c #C7C9CC",
"= 	c #C4C7C9",
"- 	c #C1C4C6",
"; 	c #BFC1C4",
"> 	c #BCBEC1",
", 	c #BABCBF",
"' 	c #B7B9BC",
") 	c #B4B5B9",
"! 	c #B1B3B7",
"~ 	c #ADAFB3",
"{ 	c #ABACB1",
"] 	c #A8A8AE",
"^ 	c #BDBEC2",
"/ 	c #BBBCBF",
"( 	c #B5B7BB",
"_ 	c #B2B3B8",
": 	c #AFB0B5",
"< 	c #A8A9AE",
"[ 	c #A4A4AA",
"} 	c #A1A1A7",
"| 	c #9E9EA4",
"1 	c #BEC0C4",
"2 	c #A1A0A4",
"3 	c #9A9BA1",
"4 	c #98979F",
"5 	c #2A6EC5",
"6 	c #296DC4",
"7 	c #286DC4",
"8 	c #276CC3",
"9 	c #276BC2",
"0 	c #266BC1",
"a 	c #256AC0",
"b 	c #266ABE",
"c 	c #99999F",
"d 	c #94959B",
"e 	c #286CC2",
"f 	c #286BC0",
"g 	c #276AC0",
"h 	c #266ABF",
"i 	c #2569BE",
"j 	c #2569BD",
"k 	c #2367BC",
"l 	c #2367BA",
"m 	c #949399",
"n 	c #909097",
"o 	c #286BC1",
"p 	c #276ABF",
"q 	c #2568BC",
"r 	c #2368BC",
"s 	c #2366BA",
"t 	c #2266B9",
"u 	c #2065B9",
"v 	c #8E8E95",
"w 	c #2265B9",
"x 	c #2165B7",
"y 	c #1F63B7",
"z 	c #8E8C93",
"A 	c #2669BE",
"B 	c #2165B8",
"C 	c #2064B6",
"D 	c #1E63B5",
"E 	c #8A8990",
"F 	c #2468BC",
"G 	c #2467BC",
"H 	c #2165B9",
"I 	c #2164B7",
"J 	c #1E63B4",
"K 	c #1560B8",
"L 	c #8A898F",
"M 	c #AFB0B4",
"N 	c #2266BA",
"O 	c #2064B7",
"P 	c #1F63B5",
"Q 	c #88878F",
"R 	c #A7A8AD",
"S 	c #A8A7AA",
"T 	c #2367BB",
"U 	c #2467B9",
"V 	c #2869B6",
"W 	c #2063B6",
"X 	c #1E62B4",
"Y 	c #1A60B4",
"Z 	c #5275A1",
"` 	c #87888F",
" .	c #A4A5AA",
"..	c #A3A2A7",
"+.	c #8E98A7",
"@.	c #2668BA",
"#.	c #1E64B9",
"$.	c #597BA8",
"%.	c #9B9493",
"&.	c #4D74A6",
"*.	c #1A60B3",
"=.	c #1C60B1",
"-.	c #2162AE",
";.	c #A3A1A5",
">.	c #8794A7",
",.	c #1C62B7",
"'.	c #5C7BA5",
").	c #918F94",
"!.	c #1960B2",
"~.	c #1C60B0",
"{.	c #1B5EAF",
"].	c #1A5EAF",
"^.	c #1B5FAF",
"/.	c #1A5EAD",
"(.	c #195DAC",
"_.	c #1E62B3",
":.	c #1A5FAE",
"<.	c #195DAB",
"[.	c #185DAC",
"    . + @ # $ % &               ",
"* = - ; > , ' ) ! ~ { ]         ",
"= - ; ^ / % ( _ : { < [ } |     ",
"- ; 1                   2 3 4   ",
";       5 6 7 8 9 0 a b   c d   ",
"        e e f g h i j k l   m n ",
"        e o p h i q r s t u   v ",
"        o h b       k w x y   z ",
"        h A j j     t B C D   E ",
"        A j F G t H I C J K L   ",
"M       j F k N B O C P     Q   ",
"{ R S   q T N U V W X Y Z `     ",
"<  ...+.@.w #.$.%.&.*.=.-.      ",
"    ;.>.U B ,.'.).  !.~.{.].    ",
"        x C P         ^./.(.    ",
"        C P _.        :.(.<.[.  "};
