/* XPM */
static char * Rails_xpm[] = {
"13 16 192 2",
"  	c None",
". 	c #97182F",
"+ 	c #97172F",
"@ 	c #AE4544",
"# 	c #B14F49",
"$ 	c #AF4A46",
"% 	c #AC4441",
"& 	c #AC4443",
"* 	c #B75F63",
"= 	c #AA4040",
"- 	c #AA4543",
"; 	c #A4323A",
"> 	c #9A1830",
", 	c #98182F",
"' 	c #9F1F32",
") 	c #AE2335",
"! 	c #BF564C",
"~ 	c #C56052",
"{ 	c #D58E7F",
"] 	c #F2DDD7",
"^ 	c #D48C77",
"/ 	c #E9C6B7",
"( 	c #DEAD98",
"_ 	c #C97261",
": 	c #BC6158",
"< 	c #A62635",
"[ 	c #94172F",
"} 	c #9E2133",
"| 	c #B42437",
"1 	c #BE5249",
"2 	c #C2594C",
"3 	c #CB7065",
"4 	c #EED5C1",
"5 	c #FBF4ED",
"6 	c #FFFFFF",
"7 	c #FBF5F0",
"8 	c #F3DDDB",
"9 	c #F7EEEC",
"0 	c #AB3D44",
"a 	c #91182E",
"b 	c #B42738",
"c 	c #B42638",
"d 	c #C56865",
"e 	c #CF837F",
"f 	c #E8C8B5",
"g 	c #EBD0B6",
"h 	c #E8C8A9",
"i 	c #BE605C",
"j 	c #C67570",
"k 	c #E0A9A8",
"l 	c #CE7A6A",
"m 	c #AC494C",
"n 	c #9B1B31",
"o 	c #B42A39",
"p 	c #B3383D",
"q 	c #AE2831",
"r 	c #E8C2BA",
"s 	c #F3E5D5",
"t 	c #F1DFCB",
"u 	c #D79C90",
"v 	c #B9504F",
"w 	c #9F161F",
"x 	c #BD6349",
"y 	c #D2946E",
"z 	c #B15048",
"A 	c #971931",
"B 	c #BE5057",
"C 	c #C5666A",
"D 	c #FBF6F1",
"E 	c #F8EEE5",
"F 	c #F6EBDD",
"G 	c #B54145",
"H 	c #A8222B",
"I 	c #A72029",
"J 	c #A62229",
"K 	c #D6A071",
"L 	c #B2584C",
"M 	c #8C172E",
"N 	c #B22838",
"O 	c #DA9B9C",
"P 	c #E8C3C4",
"Q 	c #FFFFFE",
"R 	c #FDFAF7",
"S 	c #F0D9D4",
"T 	c #BA4B4F",
"U 	c #AD2B33",
"V 	c #AA262D",
"W 	c #A9222B",
"X 	c #D4987A",
"Y 	c #AF4A44",
"Z 	c #992A37",
"` 	c #B94343",
" .	c #F1DADB",
"..	c #D18488",
"+.	c #AF2F35",
"@.	c #AE2C34",
"#.	c #AB2830",
"$.	c #BE5E4D",
"%.	c #B3544B",
"&.	c #8D172E",
"*.	c #A53041",
"=.	c #D18888",
"-.	c #F4E1E2",
";.	c #BE5258",
">.	c #B43A41",
",.	c #B13339",
"'.	c #AF3136",
").	c #C47559",
"!.	c #B4574C",
"~.	c #992339",
"{.	c #DBC2C7",
"].	c #E0BCC1",
"^.	c #FEFBFC",
"/.	c #B4373A",
"(.	c #B63C41",
"_.	c #B53A3F",
":.	c #B43D3F",
"<.	c #BE6953",
"[.	c #AC4945",
"}.	c #8A1A30",
"|.	c #962B3B",
"1.	c #C39DA3",
"2.	c #D69292",
"3.	c #C86E6E",
"4.	c #B63D40",
"5.	c #B74444",
"6.	c #B5323D",
"7.	c #9F1F34",
"8.	c #881A2F",
"9.	c #8F2131",
"0.	c #A8747D",
"a.	c #C47984",
"b.	c #D0959E",
"c.	c #DFB0B4",
"d.	c #E7BDBB",
"e.	c #D79394",
"f.	c #B32F38",
"g.	c #B42838",
"h.	c #B32335",
"i.	c #B42536",
"j.	c #971C32",
"k.	c #85172D",
"l.	c #B0626D",
"m.	c #B16B76",
"n.	c #B02738",
"o.	c #C76976",
"p.	c #B54253",
"q.	c #A43E4C",
"r.	c #AF2335",
"s.	c #BD4251",
"t.	c #B62B3B",
"u.	c #CD6E7A",
"v.	c #BF5665",
"w.	c #BA6776",
"x.	c #831328",
"y.	c #E9D5D8",
"z.	c #E7CED1",
"A.	c #CD6F7A",
"B.	c #E0ABB1",
"C.	c #D7A9AE",
"D.	c #B9787F",
"E.	c #86121E",
"F.	c #CF737E",
"G.	c #C04A58",
"H.	c #FAF0F2",
"I.	c #C76F7A",
"J.	c #A01C31",
"K.	c #871329",
"L.	c #E1C7CA",
"M.	c #E7D2D5",
"N.	c #C14958",
"O.	c #DBB3B7",
"P.	c #D4A6AA",
"Q.	c #BB7078",
"R.	c #8F131F",
"S.	c #EDD3D6",
"T.	c #D68791",
"U.	c #EDCACE",
"V.	c #D48B94",
"W.	c #A2192F",
"X.	c #8F162F",
"Y.	c #831126",
"Z.	c #831125",
"`.	c #991628",
" +	c #8C0C1E",
".+	c #8C0B1D",
"++	c #8D0E1F",
"@+	c #911425",
"#+	c #890516",
"$+	c #900C1E",
"%+	c #A01127",
"&+	c #A4192F",
"  . + @ # $ % & * = - ; > ",
", ' ) ! ~ { ] ^ / ( _ : < ",
"[ } | 1 2 3 4 5 6 7 8 9 0 ",
"a b c d e f g h i j k l m ",
"n o p q r s t u v w x y z ",
"A b B C D E F G H I J K L ",
"M N O P Q R S T U V W X Y ",
"M Z ` 6 6 6  ...+.@.#.$.%.",
"&.*.=.6 6 6 -.;.>.,.'.).!.",
"~.{.].6 6 6 ^./.(._.:.<.[.",
"}.|.1.6 6 6 6 2.3.4.5.6.7.",
"8.9.0.a.b.c.d.e.f.g.h.i.j.",
"k.l.m.n.o.p.q.r.s.t.u.v.w.",
"x.y.z.A.B.C.D.E.F.G.H.I.J.",
"K.L.M.N.O.P.Q.R.S.T.U.V.W.",
"X.Y.Z.`. +.+++@+#+$+%+&+  "};
