/* XPM */
static char * Scala_xpm[] = {
"16 16 95 2",
"  	c None",
". 	c #DE322F",
"+ 	c #DE312E",
"@ 	c #DD2D2A",
"# 	c #DD2926",
"$ 	c #DA4340",
"% 	c #DE2F2C",
"& 	c #DD2C29",
"* 	c #DD2A27",
"= 	c #DC2623",
"- 	c #DF3A37",
"; 	c #E97270",
"> 	c #F6C1C0",
", 	c #DFA9A9",
"' 	c #B6231F",
") 	c #DF3330",
"! 	c #DE3431",
"~ 	c #E86B68",
"{ 	c #F1A3A1",
"] 	c #F6C6C5",
"^ 	c #FCF0F0",
"/ 	c #FFFFFF",
"( 	c #E2B6B5",
"_ 	c #A41D19",
": 	c #BB2925",
"< 	c #DD322F",
"[ 	c #DF3734",
"} 	c #F4BCBC",
"| 	c #D69896",
"1 	c #A41E1A",
"2 	c #A5221E",
"3 	c #BD2926",
"4 	c #DF3230",
"5 	c #F5BAB9",
"6 	c #FCF9F7",
"7 	c #F0DBD3",
"8 	c #E1B7A6",
"9 	c #C77569",
"0 	c #A51F1B",
"a 	c #A6221E",
"b 	c #B72824",
"c 	c #DE3532",
"d 	c #E17E7A",
"e 	c #DDAEA6",
"f 	c #DFB0A2",
"g 	c #DAA491",
"h 	c #D79E8A",
"i 	c #DFB09F",
"j 	c #F2DFD7",
"k 	c #E1B5B4",
"l 	c #DF3431",
"m 	c #E26E6C",
"n 	c #D89B9A",
"o 	c #F3E2E0",
"p 	c #FEFEFD",
"q 	c #E2B7B7",
"r 	c #F4B9B8",
"s 	c #A51E1A",
"t 	c #F3B7B5",
"u 	c #FEFCFC",
"v 	c #FDFAF9",
"w 	c #F4E3DD",
"x 	c #E4BEAF",
"y 	c #C46E61",
"z 	c #A5201C",
"A 	c #DE6D6A",
"B 	c #D18B84",
"C 	c #D6998F",
"D 	c #DFAEA0",
"E 	c #E0B3A3",
"F 	c #E4BDAE",
"G 	c #F1DDD4",
"H 	c #E0B3B1",
"I 	c #DF3532",
"J 	c #E98A88",
"K 	c #EED2D1",
"L 	c #F9F0EE",
"M 	c #FDF9F8",
"N 	c #E2B6B6",
"O 	c #F4B8B7",
"P 	c #D9A09E",
"Q 	c #F6BEBD",
"R 	c #FBF6F6",
"S 	c #F3E1E1",
"T 	c #E9C8C7",
"U 	c #DBA7A5",
"V 	c #C36A67",
"W 	c #A6231E",
"X 	c #D2524F",
"Y 	c #B74E4B",
"Z 	c #B44340",
"` 	c #B03A36",
" .	c #AB2E2A",
"..	c #DF322F",
"+.	c #B82724",
"  . . . . . . . . . . + . . .   ",
". . . . . . . . + @ # $ + . . . ",
". . . . % & * = - ; > , ' ) . . ",
". . . ! ~ { ] ^ / / / ( _ : < . ",
". . . [ } / / / / / / | 1 2 3 4 ",
". . . [ 5 / / / 6 7 8 9 0 a 2 b ",
". . . c d e f g h i j k _ a a a ",
". . . l m n ( o p / / q _ a a a ",
". . . [ r / / / / / / | s a a a ",
". . . [ t / u v 6 w x y z a a a ",
". . . ! A B C D E F G H _ a a a ",
". . . I J K o L M / / N _ a a a ",
". . . [ O / / / / / / P 1 a a a ",
". . . [ Q / R S T U V W a a a a ",
". . . ! X Y Z `  .z 0 a a a a a ",
"  . . . ..+.2 a a a a a a a a   "};
