/* XPM */
static char * Security_xpm[] = {
"16 16 245 2",
"  	c None",
". 	c #001035",
"+ 	c #000B26",
"@ 	c #000923",
"# 	c #000F35",
"$ 	c #001F4E",
"% 	c #001641",
"& 	c #002250",
"* 	c #012A5D",
"= 	c #012A5C",
"- 	c #002556",
"; 	c #00143C",
"> 	c #001540",
", 	c #001A46",
"' 	c #001D4C",
") 	c #002151",
"! 	c #000928",
"~ 	c #000D31",
"{ 	c #001037",
"] 	c #000E33",
"^ 	c #00133A",
"/ 	c #03183D",
"( 	c #384965",
"_ 	c #8E9AAB",
": 	c #9299A9",
"< 	c #4D6181",
"[ 	c #002150",
"} 	c #002657",
"| 	c #002758",
"1 	c #002E61",
"2 	c #000E2D",
"3 	c #000E2E",
"4 	c #00153F",
"5 	c #001C48",
"6 	c #022755",
"7 	c #4A5667",
"8 	c #D6D8DA",
"9 	c #C5C7CA",
"0 	c #B8BBBD",
"a 	c #D6D9DC",
"b 	c #8196AE",
"c 	c #003A76",
"d 	c #002F63",
"e 	c #013E72",
"f 	c #013A6E",
"g 	c #001C3F",
"h 	c #00234E",
"i 	c #00467E",
"j 	c #0C406D",
"k 	c #B2B6B9",
"l 	c #ACB7C1",
"m 	c #021132",
"n 	c #05132C",
"o 	c #73787E",
"p 	c #CDD5DC",
"q 	c #2F6A9C",
"r 	c #00356D",
"s 	c #00346A",
"t 	c #013B70",
"u 	c #01447C",
"v 	c #002654",
"w 	c #013062",
"x 	c #014078",
"y 	c #014079",
"z 	c #274863",
"A 	c #CED1D5",
"B 	c #5D7FA1",
"C 	c #001645",
"D 	c #001A45",
"E 	c #233044",
"F 	c #D0D5D9",
"G 	c #6590B2",
"H 	c #005695",
"I 	c #01558F",
"J 	c #005796",
"K 	c #004E8B",
"L 	c #001B46",
"M 	c #003369",
"N 	c #00447E",
"O 	c #034D87",
"P 	c #334F65",
"Q 	c #5484AA",
"R 	c #00376E",
"S 	c #02376A",
"T 	c #213D59",
"U 	c #CCD0D2",
"V 	c #759EBE",
"W 	c #005899",
"X 	c #0168A8",
"Y 	c #016FB2",
"Z 	c #0161A2",
"` 	c #01234F",
" .	c #013F76",
"..	c #274F78",
"+.	c #637483",
"@.	c #B7BCC1",
"#.	c #7D98AF",
"$.	c #375E86",
"%.	c #3D6085",
"&.	c #56687B",
"*.	c #8FA3B6",
"=.	c #2E6593",
"-.	c #005490",
";.	c #01437A",
">.	c #013B6F",
",.	c #002C5E",
"'.	c #00386D",
").	c #034C7F",
"!.	c #697E88",
"~.	c #94A8B2",
"{.	c #8DA2AE",
"].	c #90A4B0",
"^.	c #8DA5AF",
"/.	c #98A7B0",
"(.	c #89A5B2",
"_.	c #95A5AE",
":.	c #91A6B1",
"<.	c #8EADBE",
"[.	c #08629C",
"}.	c #004F8E",
"|.	c #026BAE",
"1.	c #01386B",
"2.	c #013F70",
"3.	c #034272",
"4.	c #788F99",
"5.	c #B4C2CA",
"6.	c #A1BCC8",
"7.	c #A7B9C1",
"8.	c #6C7E84",
"9.	c #7B8B8F",
"0.	c #AEC4CE",
"a.	c #B3C1C8",
"b.	c #A3BECA",
"c.	c #A4BECD",
"d.	c #0764A0",
"e.	c #005C9A",
"f.	c #025B96",
"g.	c #024A80",
"h.	c #055181",
"i.	c #869BA5",
"j.	c #BED1D9",
"k.	c #BBCFD7",
"l.	c #9CADB4",
"m.	c #000809",
"n.	c #142F32",
"o.	c #AEBFC6",
"p.	c #C6D3DA",
"q.	c #BCD1D9",
"r.	c #A7C7D8",
"s.	c #0662A1",
"t.	c #005F9C",
"u.	c #025591",
"v.	c #012C59",
"w.	c #001D4B",
"x.	c #044170",
"y.	c #8DA2AB",
"z.	c #D4DEE3",
"A.	c #BCD6E0",
"B.	c #B6C5CC",
"C.	c #1F2B2D",
"D.	c #31474A",
"E.	c #C6DAE2",
"F.	c #D0DCE1",
"G.	c #BDD8E1",
"H.	c #B9D0DD",
"I.	c #045A97",
"J.	c #005F9D",
"K.	c #005B9C",
"L.	c #00183B",
"M.	c #001D43",
"N.	c #03274E",
"O.	c #7B8F98",
"P.	c #B5C4C9",
"Q.	c #A3BDC7",
"R.	c #A9B9C0",
"S.	c #344245",
"T.	c #374B4D",
"U.	c #BBD0D9",
"V.	c #B2C1C7",
"W.	c #A4BFC9",
"X.	c #A4BFCD",
"Y.	c #0562A5",
"Z.	c #005997",
"`.	c #015591",
" +	c #000C22",
".+	c #012E58",
"++	c #03274C",
"@+	c #58676E",
"#+	c #788B90",
"$+	c #6F878F",
"%+	c #748388",
"&+	c #121E20",
"*+	c #192B2D",
"=+	c #8C9EA3",
"-+	c #74888F",
";+	c #728A91",
">+	c #768F9C",
",+	c #074C86",
"'+	c #004D87",
")+	c #00427C",
"!+	c #00091F",
"~+	c #001C43",
"{+	c #02294A",
"]+	c #2D3E46",
"^+	c #45565E",
"/+	c #3E545D",
"(+	c #42545C",
"_+	c #3D4F56",
":+	c #3C4E56",
"<+	c #3F525B",
"[+	c #45555D",
"}+	c #3F565F",
"|+	c #47606F",
"1+	c #06508B",
"2+	c #00558F",
"3+	c #004178",
"4+	c #001E47",
"5+	c #01315C",
"6+	c #003060",
"7+	c #0A2E4E",
"8+	c #103655",
"9+	c #103656",
"0+	c #103352",
"a+	c #112D4A",
"b+	c #112E4A",
"c+	c #102B48",
"d+	c #113F61",
"e+	c #0E3B60",
"f+	c #004078",
"g+	c #003D74",
"h+	c #003467",
"i+	c #01214E",
"j+	c #013265",
"k+	c #014880",
"l+	c #00407B",
"m+	c #003E78",
"n+	c #003770",
"o+	c #003269",
"p+	c #002D63",
"q+	c #002D62",
"r+	c #004C8B",
"s+	c #004B89",
"t+	c #003F7A",
"u+	c #001F4D",
"v+	c #002555",
". + @ # $ % & * = - ; > , ' ' ) ",
"! ~ { ] ^ / ( _ : < , [ $ } | 1 ",
"2 3 4 5 6 7 8 9 0 a b c d e f e ",
"g g h i j k l m n o p q r s t u ",
"v w x y z A B C D E F G H I J K ",
"L M N O P F Q R S T U V W X Y Z ",
"` e  ...+.@.#.$.%.&.@.*.=.-.;.>.",
",.'.).!.~.{.].^./.(._.:.<.[.}.|.",
"1.2.3.4.5.6.7.8.9.0.a.b.c.d.e.f.",
"g.w h.i.j.k.l.m.n.o.p.q.r.s.t.u.",
"v.w.x.y.z.A.B.C.D.E.F.G.H.I.J.K.",
"L.M.N.O.P.Q.R.S.T.U.V.W.X.Y.Z.`.",
" +.+++@+#+$+%+&+*+=+-+;+>+,+'+)+",
"!+~+{+]+^+/+(+_+:+<+[+}+|+1+2+3+",
"4+5+6+7+8+9+0+a+b+c+9+d+e+f+g+h+",
"i+j+k+l+m+r n+o+p+q+r+s+t+d u+v+"};
