/* XPM */
static char * Shell_xpm[] = {
"16 16 48 1",
" 	c #FFFFFF",
".	c #000000",
"+	c #F3F3F3",
"@	c #040404",
"#	c #F4F4F4",
"$	c #FEFEFE",
"%	c #FDFDFD",
"&	c #F5F5F5",
"*	c #FCFCFC",
"=	c #F7F7F7",
"-	c #F6F6F6",
";	c #FAFAFA",
">	c #232323",
",	c #8C8C8C",
"'	c #080808",
")	c #ECECEC",
"!	c #111111",
"~	c #B8B8B8",
"{	c #D2D2D2",
"]	c #DFDFDF",
"^	c #868686",
"/	c #DBDBDB",
"(	c #B0B0B0",
"_	c #D0D0D0",
":	c #E5E5E5",
"<	c #B6B6B6",
"[	c #C8C8C8",
"}	c #181818",
"|	c #797979",
"1	c #6B6B6B",
"2	c #ADADAD",
"3	c #444444",
"4	c #4D4D4D",
"5	c #656565",
"6	c #2D2D2D",
"7	c #C1C1C1",
"8	c #999999",
"9	c #5A5A5A",
"0	c #A1A1A1",
"a	c #747474",
"b	c #373737",
"c	c #484848",
"d	c #535353",
"e	c #212121",
"f	c #808080",
"g	c #9B9B9B",
"h	c #343434",
"i	c #3D3D3D",
"  = &  * +  $ + ",
" @.@....@....@. ",
"=.&  * +  $ + . ",
" @ .* #  $ +  . ",
"&. *.#  $ +   .+",
" .* @. $ +    @ ",
" . @. $ +    +.%",
"*.+6 $(..   + . ",
" @  $ +   .0.%. ",
"+. $ +   .+. ..#",
" ...@....@ .  @ ",
" $ +    @ . .#.;",
"$ +    +.7 .@ @ ",
" +    + 7.5# @  ",
"+    + %  @.@. =",
"    + %  # ;  = "};
