/* XPM */
static char * Swift_xpm[] = {
"15 16 173 2",
"  	c None",
". 	c #F78900",
"+ 	c #F88700",
"@ 	c #F88200",
"# 	c #F47D00",
"$ 	c #F27900",
"% 	c #EE7400",
"& 	c #F38000",
"* 	c #F98B00",
"= 	c #FA8C00",
"- 	c #FB7D00",
"; 	c #F77A00",
"> 	c #F67500",
", 	c #F37000",
"' 	c #EF6C00",
") 	c #EB6600",
"! 	c #E76300",
"~ 	c #F07200",
"{ 	c #FB7F00",
"] 	c #FB8200",
"^ 	c #F68301",
"/ 	c #F57501",
"( 	c #F97000",
"_ 	c #F56E00",
": 	c #F46800",
"< 	c #EF6500",
"[ 	c #EB6000",
"} 	c #E65D00",
"| 	c #E25800",
"1 	c #DC5B0A",
"2 	c #FAC48E",
"3 	c #FC7700",
"4 	c #FC7800",
"5 	c #F97A00",
"6 	c #F66802",
"7 	c #F56500",
"8 	c #F45F00",
"9 	c #EF6309",
"0 	c #ED630F",
"a 	c #E85A07",
"b 	c #E44F00",
"c 	c #DC4E00",
"d 	c #D74900",
"e 	c #E6A079",
"f 	c #FCC190",
"g 	c #FB6A00",
"h 	c #FB6E00",
"i 	c #F76F00",
"j 	c #F45C02",
"k 	c #F45600",
"l 	c #F05500",
"m 	c #EF712B",
"n 	c #F09564",
"o 	c #ED8E5D",
"p 	c #E05E1D",
"q 	c #D74700",
"r 	c #D24500",
"s 	c #CA3F00",
"t 	c #FFFFFF",
"u 	c #FB8F43",
"v 	c #FA6600",
"w 	c #F16400",
"x 	c #F25302",
"y 	c #F14F00",
"z 	c #ED4B00",
"A 	c #E74400",
"B 	c #EF966D",
"C 	c #F0AD8D",
"D 	c #F5D3C4",
"E 	c #E17F55",
"F 	c #C93200",
"G 	c #C43800",
"H 	c #FFFEFE",
"I 	c #FDD8C0",
"J 	c #FD5C00",
"K 	c #FD5E00",
"L 	c #F35A00",
"M 	c #F04902",
"N 	c #ED4300",
"O 	c #EA4100",
"P 	c #E34100",
"Q 	c #DE3800",
"R 	c #F2BFAD",
"S 	c #F6D9CE",
"T 	c #FDFCFB",
"U 	c #E5A58E",
"V 	c #BE3604",
"W 	c #FEF8F4",
"X 	c #FC4800",
"Y 	c #FE5200",
"Z 	c #F35200",
"` 	c #F94A02",
" .	c #E83C00",
"..	c #E43900",
"+.	c #DE3700",
"@.	c #D83600",
"#.	c #D33500",
"$.	c #F1C6B7",
"%.	c #FCF5F3",
"&.	c #FD3F00",
"*.	c #FD4B00",
"=.	c #F34900",
"-.	c #FB4302",
";.	c #FA4301",
">.	c #E45E34",
",.	c #D72500",
"'.	c #D32E00",
").	c #CC2E00",
"!.	c #C21F00",
"~.	c #E09C89",
"{.	c #FEF9F7",
"].	c #FD3700",
"^.	c #FD4100",
"/.	c #F34000",
"(.	c #FD3C01",
"_.	c #FE3A00",
":.	c #FE845F",
"<.	c #F5D3C9",
"[.	c #DD6749",
"}.	c #CE4A28",
"|.	c #CB4F30",
"1.	c #E3AE9E",
"2.	c #FA6333",
"3.	c #FE3B00",
"4.	c #F43A00",
"5.	c #FD3301",
"6.	c #FF3300",
"7.	c #FF3200",
"8.	c #FD572E",
"9.	c #FEE7E3",
"0.	c #F53100",
"a.	c #FB2B03",
"b.	c #FE2900",
"c.	c #FE2800",
"d.	c #FC2A01",
"e.	c #FC7F67",
"f.	c #FDC9BF",
"g.	c #FEE8E4",
"h.	c #FEDCD5",
"i.	c #FC9A87",
"j.	c #FD3E18",
"k.	c #FC2700",
"l.	c #F9856E",
"m.	c #FD2A01",
"n.	c #F62A00",
"o.	c #F62403",
"p.	c #FE2100",
"q.	c #F52600",
"r.	c #FC1B00",
"s.	c #FD1500",
"t.	c #F61900",
"u.	c #FC2100",
"v.	c #FF1F00",
"w.	c #FA2000",
"x.	c #FF1B00",
"y.	c #FF1C00",
"z.	c #F91C00",
"A.	c #F32501",
"B.	c #F62101",
"C.	c #F81D00",
"D.	c #F91E00",
"E.	c #FF1D00",
"F.	c #FF1400",
"G.	c #F81902",
"H.	c #FB1601",
"I.	c #F71B03",
"J.	c #F71A02",
"K.	c #F91801",
"L.	c #F81901",
"M.	c #F61A02",
"N.	c #FA1601",
"O.	c #FA1701",
"P.	c #FB1801",
"                              ",
"  . + @ # $ % & * * * * * =   ",
"  - ; > , ' ) ! ~ { ] ] ] ] ^ ",
"/ ( _ : < [ } | 1 2 3 4 4 4 5 ",
"6 7 8 9 0 a b c d e f g h h i ",
"j k l m n o p q r s t u v v w ",
"x y z A B C D E F G H I J K L ",
"M N O P Q R S T U V t W X Y Z ",
"`  ...+.@.#.$.t t %.t t &.*.=.",
"-.;.>.,.'.).!.~.t t t {.].^./.",
"(._.:.<.[.}.|.1.t t t t 2.3.4.",
"5.6.7.8.t t t t t t t t 9.7.0.",
"a.b.b.c.d.e.f.g.h.i.j.k.l.m.n.",
"o.p.p.p.p.q.r.s.t.u.p.p.v.p.w.",
"  x.y.y.y.z.A.B.C.D.y.E.F.y.  ",
"    G.H.H.I.J.K.L.M.N.O.P.    "};
