/* XPM */
static char * TeX_xpm[] = {
"16 16 99 2",
"  	c None",
". 	c #ECEBEB",
"+ 	c #F5F4F4",
"@ 	c #F6F5F5",
"# 	c #F7F6F6",
"$ 	c #F6F4F4",
"% 	c #E5E4E4",
"& 	c #F0F0F0",
"* 	c #F1F0F0",
"= 	c #EBEBEB",
"- 	c #F8F7F7",
"; 	c #F8F6F6",
"> 	c #EFEFEF",
", 	c #E9E8E8",
"' 	c #F7F7F7",
") 	c #F8F8F8",
"! 	c #FAF9F9",
"~ 	c #FAFAFA",
"{ 	c #F9F9F9",
"] 	c #EDEDED",
"^ 	c #E5E5E5",
"/ 	c #F4F4F4",
"( 	c #F1F1F1",
"_ 	c #F3F3F3",
": 	c #F2F2F2",
"< 	c #F9F8F8",
"[ 	c #E4EAEA",
"} 	c #F0A6A6",
"| 	c #F3B0B0",
"1 	c #F2CACA",
"2 	c #E5AFAF",
"3 	c #FFFFFF",
"4 	c #FEFFFF",
"5 	c #F4C2C2",
"6 	c #EDC8C8",
"7 	c #F4F5F5",
"8 	c #F0A3A3",
"9 	c #FBFDFD",
"0 	c #DCDFDF",
"a 	c #F3DFDF",
"b 	c #FE9494",
"c 	c #F3FFFF",
"d 	c #DEB0B0",
"e 	c #FFE1E1",
"f 	c #FEDADA",
"g 	c #FBFFFF",
"h 	c #EC7474",
"i 	c #E7D9D9",
"j 	c #FBFAFA",
"k 	c #E3E3E3",
"l 	c #F9FAFA",
"m 	c #FD9292",
"n 	c #E39A9A",
"o 	c #EFD3D3",
"p 	c #F4EFEF",
"q 	c #EBB1B1",
"r 	c #F4D1D1",
"s 	c #EC9090",
"t 	c #E4E4E4",
"u 	c #FD9191",
"v 	c #F2FEFE",
"w 	c #E9A6A6",
"x 	c #DEAEAE",
"y 	c #E9B6B6",
"z 	c #ECEEEE",
"A 	c #E8C9C9",
"B 	c #F19191",
"C 	c #EFE4E4",
"D 	c #E6E6E6",
"E 	c #F2F1F1",
"F 	c #E58888",
"G 	c #E1D5D5",
"H 	c #EAA6A6",
"I 	c #FDE6E6",
"J 	c #F3DCDC",
"K 	c #DC9E9E",
"L 	c #EEE3E3",
"M 	c #E9F3F3",
"N 	c #DD6868",
"O 	c #F1EEEE",
"P 	c #FCFEFE",
"Q 	c #E99696",
"R 	c #F5C9C9",
"S 	c #F4E3E3",
"T 	c #EDABAB",
"U 	c #F6F7F7",
"V 	c #ECECEC",
"W 	c #EEF3F3",
"X 	c #EEEEEE",
"Y 	c #E9E0E0",
"Z 	c #F7E9E9",
"` 	c #F5E5E5",
" .	c #E2E2E2",
"..	c #DBDBDB",
"+.	c #F5F5F5",
"@.	c #F3F2F2",
"#.	c #EEEDED",
"$.	c #F5F3F3",
"%.	c #E0DFDF",
"                                ",
"    . + @ # # # # # @ @ $ #     ",
"    % & * = # - ; # @ > , @     ",
"    % @ ' + ) ! ~ { ) - ] @     ",
"    ^ - ! / ( / _ : & < ) +     ",
"    [ } | 1 2 3 4 5 6 7 8 9     ",
"    0 a b c d e f g h i ' j     ",
"    k l m c n o p q r s { '     ",
"    t { u v w x y z A B C j     ",
"    D E F G H I J K L M N O     ",
"    > { g P Q R S T U V W k     ",
"    X ) ) l Y Z ` : =  ...      ",
"    X - - +./ / : = t @.        ",
"    #.# - - - - $.. %.          ",
"    * ! ~ j j ! +  .            ",
"                                "};
