/* XPM */
static char * Ubuntu_xpm[] = {
"16 16 2 1",
" 	c None",
".	c #F47421",
"     ......     ",
"   ..........   ",
"  ........ ...  ",
" ......  .  ... ",
" ....      .... ",
"....  ....  ....",
".... ...... ....",
".. . ......  ...",
".. . ......  ...",
".... ...... ....",
"....  ....  ....",
" ....      .... ",
" ......  .  ... ",
"  ........ ...  ",
"   ..........   ",
"     ......     "};
